<svg width="81" height="81" viewBox="0 0 81 81" fill="none" xmlns="http://www.w3.org/2000/svg">
<circle cx="40.4249" cy="40.085" r="39.9151" fill="#E3335B"/>
<path d="M20.1758 41.1986C19.2351 41.1171 18.7485 40.7012 18.7328 39.9944C18.7171 39.2827 19.2056 38.8432 20.1768 38.7292C20.5545 33.9181 22.3997 29.743 25.8174 26.32C29.2283 22.9039 33.3798 21.0537 38.2357 20.6733C38.2249 20.1916 38.3142 19.7178 38.7576 19.4435C38.9665 19.3147 39.2343 19.2262 39.4776 19.2203C40.1702 19.2046 40.5184 19.6342 40.6989 20.6123C41.779 20.8001 42.8492 20.9525 43.9048 21.1776C45.4341 21.504 46.8899 22.0584 48.2682 22.7967C48.5703 22.9589 48.7312 22.9029 48.9539 22.6738C49.9868 21.6151 51.0375 20.573 52.0832 19.528C52.9111 18.7003 53.7872 18.8448 54.2924 19.8937C54.7927 20.9318 55.2959 21.969 55.7766 23.0159C55.911 23.3079 56.1013 23.4848 56.3877 23.6176C57.407 24.0894 58.4184 24.58 59.4307 25.0676C60.5334 25.5975 60.6864 26.4665 59.831 27.3267C58.7686 28.3943 57.7052 29.4619 56.6369 30.5236C56.4858 30.673 56.4182 30.787 56.5349 31.0082C57.7739 33.3676 58.5067 35.8754 58.6901 38.5395C58.694 38.5925 58.7146 38.6447 58.7323 38.7184C58.8726 38.742 59.0178 38.7636 59.161 38.7901C59.7819 38.9022 60.1949 39.4154 60.1606 40.0298C60.1253 40.6639 59.6456 41.1574 59.004 41.1701C58.0691 41.1878 57.1343 41.1829 56.1984 41.1741C55.5215 41.1672 55.0222 40.7042 54.9702 40.0622C54.9182 39.4232 55.3342 38.916 56.0189 38.7823C56.0974 38.7666 56.1749 38.7469 56.2857 38.7213C56.1209 36.5714 55.5961 34.5325 54.6063 32.5733C54.1315 32.9124 53.6528 32.8367 53.1544 32.7079C51.989 32.4061 50.8177 32.124 49.6455 31.8497C49.5101 31.8183 49.2972 31.833 49.2099 31.9176C48.0082 33.0923 46.8212 34.2828 45.6372 35.4635C48.2015 39.207 47.1469 43.6376 44.2255 45.9606C41.1384 48.4153 36.7956 48.1627 34.0439 45.3993C31.2893 42.6329 31.049 38.3143 33.5024 35.1961C35.7754 32.3068 40.1976 31.2156 43.9362 33.7677C44.514 33.1877 45.0967 32.6018 45.6803 32.0168C46.1973 31.4978 46.6996 30.962 47.2391 30.4675C47.5432 30.1883 47.6345 29.9298 47.5197 29.515C47.2077 28.3923 46.9586 27.2519 46.6672 26.1234C46.5505 25.6702 46.5338 25.2416 46.832 24.7963C44.8965 23.8083 42.8649 23.2843 40.7382 23.1221C40.3624 24.1504 40.0073 24.4748 39.3501 24.4158C38.7262 24.3598 38.3495 23.9469 38.2229 23.1821C30.9411 23.3246 23.1492 29.8895 22.6508 38.5749C23.053 38.8521 23.4444 39.0556 23.7397 39.3544C23.8918 39.5078 23.929 39.8332 23.9212 40.077C23.9016 40.7022 23.465 41.0718 22.6616 41.2134C22.902 48.8017 29.5658 56.3555 38.2072 56.8382C38.2435 56.674 38.2671 56.501 38.321 56.3388C38.4976 55.8079 38.991 55.4855 39.5443 55.5258C40.0711 55.5641 40.5832 55.9495 40.6077 56.4794C40.6577 57.5755 40.6626 58.6765 40.6077 59.7716C40.5792 60.3467 40.0034 60.7488 39.4295 60.737C38.839 60.7252 38.3387 60.2799 38.2582 59.691C38.2416 59.5721 38.2396 59.4502 38.2298 59.3086C33.4034 58.9341 29.2362 57.0869 25.8165 53.6599C22.3968 50.232 20.5486 46.0569 20.1748 41.2006L20.1758 41.1986ZM42.2086 35.5736C40.1211 34.1019 36.8947 34.6908 35.3408 36.7483C33.6064 39.0448 33.937 42.2456 36.1158 44.024C38.3524 45.8495 41.3856 45.5487 43.2495 43.5875C45.181 41.5565 44.9289 38.6053 43.79 37.2172C43.6968 37.346 43.6222 37.4807 43.5183 37.5859C42.344 38.7695 41.1737 39.959 39.9779 41.121C39.7591 41.3333 39.4433 41.5063 39.146 41.5634C38.6398 41.6607 38.1621 41.3471 37.9571 40.8988C37.7334 40.4073 37.8109 39.9285 38.2161 39.5176C39.2922 38.4274 40.3762 37.3441 41.4611 36.2627C41.6897 36.0346 41.9359 35.8233 42.2077 35.5745L42.2086 35.5736ZM52.7473 22.2668C51.5437 23.479 50.4028 24.6193 49.2796 25.7774C49.1864 25.8737 49.1648 26.1027 49.1981 26.2492C49.4139 27.1998 49.6612 28.1436 49.8819 29.0932C49.9378 29.3341 50.0486 29.4579 50.2939 29.514C51.2288 29.7302 52.1627 29.9534 53.0897 30.2011C53.3644 30.2749 53.538 30.2228 53.7332 30.0242C54.7495 28.988 55.7795 27.9656 56.8037 26.9374C56.892 26.8489 56.9704 26.7496 57.0803 26.6257C56.325 26.2649 55.6373 25.914 54.931 25.6053C54.3924 25.3694 54.0246 25.0037 53.7872 24.464C53.4733 23.7473 53.1191 23.0494 52.7463 22.2668L52.7473 22.2668Z" fill="white"/>
<path d="M25.9772 39.8632C26.1243 36.0892 27.4035 33.0368 29.8707 30.5211C31.9543 28.3967 34.4823 27.0873 37.439 26.6616C38.0678 26.5712 38.7044 26.5279 39.3391 26.5014C40.0847 26.4709 40.6144 26.9516 40.6536 27.6466C40.6899 28.2876 40.221 28.7939 39.5157 28.8922C38.5004 29.0337 37.4596 29.0868 36.4756 29.3473C33.7701 30.064 31.6335 31.6467 30.1591 34.0208C27.9185 37.6296 27.742 41.4115 29.7049 45.1707C31.4197 48.4541 34.2086 50.4163 37.8843 50.9383C42.9197 51.654 47.5421 49.0223 49.612 44.3548C50.2368 42.947 50.4703 41.4508 50.5282 39.9192C50.5488 39.3677 50.9471 38.9174 51.4464 38.8132C51.982 38.7012 52.5137 38.9253 52.7589 39.4011C52.8482 39.5751 52.9051 39.7875 52.9061 39.9831C52.9159 42.368 52.3342 44.6054 51.1423 46.6679C49.4069 49.6692 46.8907 51.7425 43.6025 52.8219C40.7311 53.7646 37.8363 53.7489 34.9934 52.7118C30.8379 51.1959 28.0578 48.2919 26.6276 44.1061C26.1332 42.657 25.9556 41.148 25.9762 39.8622L25.9772 39.8632Z" fill="white"/>
<path d="M42.2065 35.5725C41.9347 35.8222 41.6885 36.0325 41.46 36.2606C40.375 37.342 39.291 38.4253 38.2149 39.5155C37.8087 39.9264 37.7312 40.4042 37.9559 40.8967C38.1599 41.345 38.6387 41.6586 39.1448 41.5613C39.4411 41.5043 39.758 41.3312 39.9767 41.1189C41.1725 39.9569 42.3428 38.7684 43.5171 37.5838C43.6211 37.4786 43.6946 37.3439 43.7888 37.2152C44.9287 38.6032 45.1798 41.5534 43.2483 43.5854C41.3844 45.5466 38.3502 45.8464 36.1146 44.0219C33.9358 42.2435 33.6052 39.0427 35.3396 36.7462C36.8935 34.6887 40.1199 34.0998 42.2075 35.5715L42.2065 35.5725Z" fill="white"/>
<path d="M52.7466 22.2676C53.1193 23.0501 53.4735 23.7491 53.7874 24.4647C54.0238 25.0044 54.3917 25.3701 54.9312 25.6061C55.6375 25.9147 56.3252 26.2657 57.0805 26.6265C56.9707 26.7503 56.8922 26.8496 56.8039 26.9381C55.7797 27.9664 54.7497 28.9888 53.7334 30.0249C53.5382 30.2235 53.3646 30.2756 53.0899 30.2019C52.1629 29.9532 51.229 29.731 50.2941 29.5147C50.0489 29.4577 49.938 29.3348 49.8821 29.094C49.6614 28.1443 49.4142 27.2006 49.1983 26.25C49.165 26.1025 49.1866 25.8744 49.2798 25.7781C50.403 24.62 51.5439 23.4807 52.7475 22.2676L52.7466 22.2676Z" fill="white"/>
</svg>
