<svg width="99" height="99" viewBox="0 0 99 99" fill="none" xmlns="http://www.w3.org/2000/svg">
<g opacity="0.05">
<path d="M89.7188 6.1875H64.9688C59.8447 6.1875 55.6875 10.3447 55.6875 15.4688V40.2188C55.6875 45.3428 59.8447 49.5 64.9688 49.5H80.4375V61.875C80.4375 68.7006 74.8881 74.25 68.0625 74.25H66.5156C63.9439 74.25 61.875 76.3189 61.875 78.8906V88.1719C61.875 90.7436 63.9439 92.8125 66.5156 92.8125H68.0625C85.1555 92.8125 99 78.968 99 61.875V15.4688C99 10.3447 94.8428 6.1875 89.7188 6.1875ZM34.0312 6.1875H9.28125C4.15723 6.1875 0 10.3447 0 15.4688V40.2188C0 45.3428 4.15723 49.5 9.28125 49.5H24.75V61.875C24.75 68.7006 19.2006 74.25 12.375 74.25H10.8281C8.25645 74.25 6.1875 76.3189 6.1875 78.8906V88.1719C6.1875 90.7436 8.25645 92.8125 10.8281 92.8125H12.375C29.468 92.8125 43.3125 78.968 43.3125 61.875V15.4688C43.3125 10.3447 39.1553 6.1875 34.0312 6.1875Z" fill="url(#paint0_linear_1974_3281)"/>
</g>
<defs>
<linearGradient id="paint0_linear_1974_3281" x1="4.13877e-07" y1="6" x2="99" y2="93" gradientUnits="userSpaceOnUse">
<stop stop-color="#1A3AE0"/>
<stop offset="1" stop-color="#E01A47"/>
</linearGradient>
</defs>
</svg>
