<svg width="40" height="40" viewBox="0 0 40 40" fill="none" xmlns="http://www.w3.org/2000/svg">
<path d="M16.2987 6.1106C14.7646 6.1106 13.5211 7.35686 13.5211 8.89376C13.5207 9.25889 13.5923 9.62051 13.7317 9.95798C13.8711 10.2955 14.0755 10.6022 14.3335 10.8606C14.5914 11.1191 14.8977 11.3242 15.2349 11.4642C15.5721 11.6043 15.9336 11.6766 16.2987 11.6769H19.0768V8.89376C19.0773 8.15632 18.785 7.44883 18.264 6.9269C17.743 6.40496 17.0361 6.11133 16.2987 6.1106ZM16.2987 13.5324H8.89131C7.35718 13.5324 6.11371 14.7787 6.11371 16.316C6.11371 17.853 7.35718 19.0992 8.89131 19.0992H16.2991C17.8327 19.0992 19.0768 17.853 19.0768 16.316C19.0768 14.7787 17.8327 13.5324 16.2987 13.5324Z" fill="#DC0032"/>
<path d="M33.8915 16.316C33.8915 14.7787 32.6476 13.5324 31.1134 13.5324C29.5793 13.5324 28.3358 14.7787 28.3358 16.316V19.0992H31.1134C31.8509 19.0985 32.5579 18.8048 33.0789 18.283C33.5998 17.761 33.892 17.0535 33.8915 16.316ZM26.4841 16.316V8.89376C26.4847 8.15632 26.1925 7.44883 25.6715 6.9269C25.1505 6.40496 24.4434 6.11133 23.7061 6.1106C22.1719 6.1106 20.9284 7.35686 20.9284 8.89376V16.3156C20.9284 17.8534 22.1719 19.0996 23.7061 19.0996C24.4434 19.0989 25.1505 18.8053 25.6715 18.2834C26.1925 17.7614 26.4847 17.0535 26.4841 16.316Z" fill="#5C2289"/>
<path d="M23.7061 33.9432C24.4434 33.9425 25.1505 33.6489 25.6715 33.127C26.1925 32.605 26.4847 31.8975 26.4841 31.16C26.4847 30.4227 26.1925 29.7152 25.6715 29.1932C25.1505 28.6713 24.4434 28.3777 23.7061 28.3768H20.9284V31.16C20.9284 32.697 22.1719 33.9432 23.7061 33.9432ZM23.7061 26.5214H31.1139C32.6476 26.5214 33.8915 25.2752 33.8915 23.7378C33.892 23.0003 33.5998 22.2928 33.0789 21.7709C32.5579 21.2491 31.8509 20.9553 31.1134 20.9546H23.7061C22.1719 20.9546 20.9284 22.2009 20.9284 23.7378C20.9282 24.103 20.9997 24.4646 21.139 24.802C21.2784 25.1395 21.4829 25.4461 21.7408 25.7046C21.9987 25.9631 22.3051 26.1682 22.6423 26.3082C22.9794 26.4484 23.3409 26.5211 23.7061 26.5214Z" fill="#3F8CFF"/>
<path d="M6.11371 23.7378C6.11335 24.103 6.1849 24.4646 6.32429 24.802C6.46368 25.1395 6.66817 25.4461 6.9261 25.7046C7.18402 25.9631 7.49032 26.1682 7.82752 26.3082C8.1647 26.4484 8.52618 26.5206 8.89131 26.521C9.62875 26.5202 10.3357 26.2266 10.8567 25.7046C11.3777 25.1828 11.67 24.4753 11.6694 23.7378V20.9546H8.89131C7.35718 20.9546 6.11371 22.2009 6.11371 23.7378ZM13.5211 23.7378V31.1596C13.5211 32.697 14.7646 33.9432 16.2987 33.9432C17.0361 33.9425 17.743 33.6489 18.264 33.127C18.785 32.605 19.0773 31.8975 19.0768 31.16V23.7378C19.077 23.3727 19.0055 23.011 18.8661 22.6735C18.7268 22.336 18.5222 22.0292 18.2641 21.7709C18.0062 21.5124 17.6998 21.3073 17.3626 21.1673C17.0254 21.0271 16.6638 20.9549 16.2987 20.9546C14.7646 20.9546 13.5211 22.2009 13.5211 23.7378Z" fill="#FAFF00"/>
</svg>
