<svg width="40" height="40" viewBox="0 0 40 40" fill="none" xmlns="http://www.w3.org/2000/svg">
<path d="M20 1.66669C20 1.66669 5 5.91669 5 6.66669V21.8334C5 29.5 16.0833 36.25 19.1667 38.0834C19.4133 38.2482 19.7033 38.3361 20 38.3361C20.2967 38.3361 20.5867 38.2482 20.8333 38.0834C24 36.3334 35 29.5 35 21.8334V6.66669C35 5.91669 20 1.66669 20 1.66669ZM27.8333 15.3334L18.6667 24.5C18.5183 24.6617 18.3381 24.7907 18.1372 24.879C17.9364 24.9673 17.7194 25.0129 17.5 25.0129C17.2806 25.0129 17.0636 24.9673 16.8628 24.879C16.6619 24.7907 16.4817 24.6617 16.3333 24.5L12.25 20.4167C11.9492 20.1339 11.7527 19.758 11.6922 19.3496C11.6317 18.9413 11.7108 18.5245 11.9167 18.1667C12.0602 17.9644 12.2471 17.7967 12.4637 17.6758C12.6803 17.5549 12.9211 17.4839 13.1686 17.4679C13.4162 17.452 13.6641 17.4914 13.8945 17.5835C14.1248 17.6755 14.3317 17.8178 14.5 18L17.5 21L25.5 13C25.821 12.7593 26.218 12.6424 26.6181 12.6709C27.0183 12.6993 27.3948 12.8712 27.6785 13.1548C27.9622 13.4385 28.134 13.815 28.1625 14.2152C28.1909 14.6154 28.074 15.0124 27.8333 15.3334Z" fill="url(#paint0_linear_1_97)"/>
<defs>
<linearGradient id="paint0_linear_1_97" x1="5" y1="18.125" x2="35" y2="17.975" gradientUnits="userSpaceOnUse">
<stop stop-color="#51FF6D"/>
<stop offset="1" stop-color="#00AD1C"/>
</linearGradient>
</defs>
</svg>
