<svg width="40" height="40" viewBox="0 0 40 40" fill="none" xmlns="http://www.w3.org/2000/svg">
<circle cx="20" cy="20" r="20" fill="#FBAE3C"/>
<path d="M21.4613 31.8397C21.4663 32.1299 21.383 32.4151 21.2219 32.6592C21.0609 32.9033 20.8292 33.0952 20.5564 33.2109C20.2835 33.3265 19.9816 33.3605 19.6889 33.3087C19.3962 33.2569 19.1258 33.1216 18.9119 32.9199C18.698 32.7181 18.5502 32.459 18.4872 32.1753C18.4242 31.8916 18.4489 31.596 18.558 31.3259C18.6671 31.0559 18.8559 30.8235 19.1004 30.6581C19.3448 30.4927 19.6341 30.4018 19.9315 30.3968C20.1292 30.3929 20.3257 30.4272 20.5098 30.4978C20.6938 30.5683 20.8618 30.6737 21.0039 30.8078C21.1461 30.9419 21.2597 31.1021 21.3382 31.2792C21.4167 31.4563 21.4585 31.6468 21.4613 31.8397Z" fill="#37474F"/>
<path d="M18.1361 31.9954C17.1305 31.4506 17.1134 30.54 18.102 29.9578C18.6581 29.6735 19.2749 29.5208 19.9026 29.5121C20.5304 29.5034 21.1514 29.639 21.7155 29.9079C22.7211 30.4568 22.7381 31.3675 21.7496 31.9413C21.1938 32.2263 20.5772 32.3797 19.9494 32.3891C19.3217 32.3985 18.7005 32.2636 18.1361 31.9954Z" fill="#455A64"/>
<path d="M18.0724 31.4667C17.0326 30.9011 17.0156 29.9655 18.034 29.3875C18.6077 29.0944 19.2437 28.9364 19.8912 28.9263C20.5387 28.9162 21.1796 29.0542 21.7625 29.3293C22.798 29.899 22.815 30.8346 21.7923 31.4292C21.2195 31.722 20.5836 31.878 19.937 31.8845C19.2903 31.891 18.6513 31.7478 18.0724 31.4667Z" fill="#37474F"/>
<path d="M18.0079 30.9176C16.9426 30.3354 16.9255 29.3707 17.9823 28.7802C18.5718 28.4768 19.2263 28.3134 19.8927 28.3032C20.559 28.2931 21.2185 28.4366 21.8173 28.722C22.8869 29.3 22.9082 30.273 21.8557 30.8843C21.2619 31.184 20.6043 31.3431 19.9358 31.3489C19.2674 31.3547 18.6069 31.2069 18.0079 30.9176Z" fill="#455A64"/>
<path d="M17.9352 30.3571C16.8359 29.7624 16.8231 28.7645 17.9012 28.1324C18.5084 27.8185 19.1831 27.6489 19.8702 27.6374C20.5573 27.6258 21.2375 27.7726 21.8555 28.0659C22.9591 28.6688 22.9762 29.6626 21.8896 30.2989C21.2813 30.6105 20.6065 30.7781 19.9195 30.7882C19.2326 30.7983 18.5529 30.6507 17.9352 30.3571Z" fill="#37474F"/>
<path d="M17.877 29.7747C16.7393 29.1385 16.7308 28.1447 17.8387 27.496C18.4597 27.1765 19.1493 27.0047 19.8513 26.9946C20.5533 26.9845 21.2478 27.1363 21.8782 27.4378C23.0032 28.0449 23.0202 29.0637 21.9123 29.7082C21.2924 30.028 20.6039 30.2006 19.9028 30.2122C19.2017 30.2238 18.5077 30.0739 17.877 29.7747Z" fill="#455A64"/>
<path d="M19.6241 12.6218C17.7269 12.6459 15.9172 13.404 14.5924 14.7294C13.2677 16.0549 12.5364 17.8394 12.5591 19.6908V19.7241C12.6486 25.2795 17.3529 26.1361 17.3998 28.3691C17.424 28.5813 17.5054 28.7835 17.6356 28.9551C17.7658 29.1268 17.9403 29.2617 18.1412 29.3463C18.6876 29.6061 19.2888 29.7369 19.8965 29.7282C20.5042 29.7196 21.1013 29.5716 21.6396 29.2964C21.8355 29.2054 22.0032 29.0656 22.1259 28.8911C22.2487 28.7166 22.322 28.5136 22.3384 28.3025C22.3001 26.0612 26.9831 25.0674 26.8936 19.5037C26.8667 17.6527 26.0875 15.8879 24.7275 14.5974C23.3675 13.3068 21.5379 12.5962 19.6411 12.6218H19.6241Z" fill="#E29D36"/>
<g opacity="0.6">
<path d="M19.6241 12.6218C17.7269 12.6459 15.9172 13.404 14.5924 14.7294C13.2677 16.0549 12.5364 17.8394 12.5591 19.6908V19.7241C12.6486 25.2795 17.3529 26.1361 17.3998 28.3691C17.424 28.5813 17.5054 28.7835 17.6356 28.9551C17.7658 29.1268 17.9403 29.2617 18.1412 29.3463C18.6876 29.6061 19.2888 29.7369 19.8965 29.7282C20.5042 29.7196 21.1013 29.5716 21.6396 29.2964C21.8355 29.2054 22.0032 29.0656 22.1259 28.8911C22.2487 28.7166 22.322 28.5136 22.3384 28.3025C22.3001 26.0612 26.9831 25.0674 26.8936 19.5037C26.8667 17.6527 26.0875 15.8879 24.7275 14.5974C23.3675 13.3068 21.5379 12.5962 19.6411 12.6218H19.6241Z" fill="white"/>
</g>
<path d="M18.5833 29.0427C17.8675 28.6269 17.8334 27.9824 18.5365 27.5666C18.9415 27.3587 19.391 27.247 19.8486 27.2405C20.3061 27.234 20.7588 27.3329 21.1698 27.5291C21.8857 27.945 21.9155 28.5895 21.1954 29.0095C20.7929 29.2136 20.347 29.3229 19.8934 29.3287C19.4398 29.3344 18.9912 29.2365 18.5833 29.0427Z" fill="#976824"/>
<path d="M20.8354 28.0897C20.772 28.0898 20.711 28.0661 20.665 28.0235C20.619 27.981 20.5915 27.9228 20.5882 27.861C20.5703 26.516 20.7133 25.1735 21.0143 23.8608C21.1006 23.4805 21.2146 23.1067 21.3552 22.7422C21.135 22.6673 20.9236 22.5697 20.7246 22.4511C20.362 22.2384 20.0345 21.9734 19.753 21.6652C19.482 21.9732 19.1661 22.2408 18.8156 22.4594C18.6204 22.5828 18.4117 22.6846 18.1935 22.763C18.3453 23.1243 18.472 23.4953 18.5727 23.8732C18.9271 25.1779 19.1174 26.5198 19.1394 27.8693C19.1394 27.9005 19.1332 27.9313 19.1209 27.96C19.1087 27.9888 19.0909 28.0149 19.0683 28.0369C19.0457 28.0589 19.019 28.0764 18.9895 28.0883C18.96 28.1002 18.9284 28.1063 18.8966 28.1063C18.8647 28.1063 18.8331 28.1002 18.8036 28.0883C18.7741 28.0764 18.7474 28.0589 18.7248 28.0369C18.7023 28.0149 18.6844 27.9888 18.6722 27.96C18.6599 27.9313 18.6537 27.9005 18.6537 27.8693C18.623 26.5637 18.4371 25.2659 18.0997 24.0022C18.0016 23.6261 17.8748 23.2578 17.7205 22.9002C17.4795 22.9521 17.2292 22.9454 16.9915 22.8809C16.7537 22.8164 16.5358 22.6959 16.3569 22.5301C16.221 22.4079 16.134 22.2426 16.1113 22.0637C16.0887 21.8847 16.1319 21.7037 16.2333 21.5529C16.3031 21.448 16.4028 21.3653 16.5202 21.3151C16.6376 21.2648 16.7675 21.2492 16.8938 21.2702C17.1451 21.3609 17.3732 21.5038 17.5623 21.6891C17.7513 21.8743 17.8969 22.0974 17.9889 22.343C18.1851 22.2726 18.3724 22.1805 18.5471 22.0686C18.8884 21.8574 19.1932 21.595 19.4505 21.291C19.2968 21.1066 19.1838 20.8933 19.1185 20.6643C19.0533 20.4353 19.0372 20.1957 19.0713 19.9603C19.1072 19.8205 19.191 19.6968 19.3088 19.6099C19.4266 19.5229 19.5713 19.4778 19.719 19.4821C19.8659 19.4716 20.0119 19.5116 20.1318 19.5951C20.2516 19.6787 20.3377 19.8005 20.3752 19.9395C20.4176 20.1737 20.4099 20.4138 20.3528 20.645C20.2956 20.8761 20.19 21.0932 20.0428 21.2827C20.307 21.5782 20.6177 21.8309 20.9632 22.0311C21.1431 22.1365 21.3346 22.2216 21.5342 22.2848C21.6206 22.0381 21.7599 21.8122 21.9429 21.6221C22.1259 21.4321 22.3483 21.2824 22.5952 21.1829C22.7222 21.161 22.853 21.1762 22.9713 21.2265C23.0895 21.2768 23.1899 21.36 23.26 21.4656C23.3673 21.612 23.4172 21.7911 23.4008 21.9704C23.3844 22.1497 23.3027 22.3173 23.1705 22.4428C22.9968 22.6138 22.783 22.741 22.5477 22.8135C22.3124 22.8859 22.0625 22.9014 21.8197 22.8586C21.6757 23.2213 21.5589 23.5938 21.4703 23.973C21.1752 25.2473 21.0322 26.5505 21.0442 27.8569C21.0465 27.9201 21.0232 27.9818 20.9794 28.0285C20.9355 28.0751 20.8746 28.1031 20.8098 28.1063L20.8354 28.0897ZM16.7915 21.7401C16.7634 21.7414 16.7362 21.7502 16.7129 21.7656C16.6896 21.781 16.6711 21.8024 16.6594 21.8274C16.5401 21.9854 16.6594 22.16 16.7276 22.2058C16.8319 22.2984 16.9559 22.3673 17.0908 22.4076C17.2256 22.4478 17.3679 22.4584 17.5074 22.4386C17.3782 22.1308 17.1369 21.8805 16.8299 21.7359L16.7915 21.7401ZM22.0626 22.3887C22.2045 22.4016 22.3476 22.3845 22.4822 22.3386C22.6168 22.2927 22.7396 22.219 22.8424 22.1226C22.8807 22.0769 23.0213 21.9022 22.902 21.7442C22.8855 21.7142 22.8598 21.69 22.8284 21.6751C22.7971 21.6602 22.7617 21.6553 22.7273 21.6611C22.5611 21.6943 22.314 21.9189 22.0626 22.3887ZM19.753 19.9686C19.7102 19.9626 19.6666 19.9732 19.6316 19.998C19.5966 20.0229 19.5729 20.0601 19.5656 20.1017C19.5355 20.3752 19.6081 20.65 19.7701 20.8751C19.919 20.6436 19.9794 20.3682 19.9405 20.0976C19.9332 20.0559 19.9095 20.0187 19.8745 19.9938C19.8395 19.969 19.7959 19.9585 19.753 19.9645V19.9686Z" fill="white"/>
<path d="M19.6234 9.94883C19.5835 9.96167 19.5418 9.96868 19.4998 9.96962C19.3788 9.96647 19.2636 9.91814 19.178 9.8346C19.0923 9.75105 19.0428 9.63864 19.0396 9.52053L18.9885 7.13785C18.985 7.01722 19.0305 6.90015 19.1151 6.81214C19.1998 6.72413 19.3166 6.67231 19.4401 6.66797C19.56 6.67221 19.6737 6.72114 19.7577 6.80468C19.8417 6.88822 19.8897 7.00002 19.8918 7.11706L19.9472 9.5039C19.9481 9.60188 19.9172 9.69762 19.8591 9.7775C19.8009 9.85739 19.7185 9.91734 19.6234 9.94883Z" fill="white"/>
<path d="M14.4454 11.4268C14.3465 11.4561 14.2405 11.4524 14.144 11.4162C14.0475 11.3801 13.9661 11.3136 13.9128 11.2272L12.6344 9.18966C12.5774 9.08147 12.5664 8.95569 12.6039 8.83966C12.6414 8.72364 12.7244 8.62675 12.8347 8.57008C12.9357 8.51802 13.0527 8.50408 13.1636 8.53093C13.2744 8.55778 13.3712 8.62353 13.4355 8.71562L14.7139 10.749C14.7463 10.8002 14.7679 10.8572 14.7776 10.9166C14.7872 10.976 14.7846 11.0368 14.7699 11.0952C14.7552 11.1537 14.7288 11.2087 14.6921 11.257C14.6554 11.3054 14.6092 11.3461 14.5562 11.3769C14.5233 11.401 14.4856 11.418 14.4454 11.4268Z" fill="white"/>
<path d="M10.715 15.2344C10.6551 15.2521 10.5922 15.2579 10.53 15.2515C10.4678 15.245 10.4075 15.2265 10.3528 15.197L8.22219 14.0493C8.15803 14.0284 8.09928 13.9941 8.04998 13.9488C8.00069 13.9036 7.96201 13.8485 7.93662 13.7873C7.91122 13.7261 7.8997 13.6602 7.90285 13.5943C7.90601 13.5283 7.92376 13.4638 7.95489 13.4052C7.98602 13.3466 8.02979 13.2952 8.08319 13.2546C8.13659 13.2141 8.19836 13.1853 8.26424 13.1702C8.33013 13.1552 8.39857 13.1542 8.46487 13.1675C8.53116 13.1807 8.59375 13.2077 8.64831 13.2468L10.7789 14.3903C10.8871 14.449 10.9671 14.5471 11.0014 14.6632C11.0357 14.7793 11.0216 14.9039 10.9621 15.0099C10.9122 15.1128 10.8238 15.1932 10.715 15.2344Z" fill="white"/>
<path d="M9.43275 20.3495C9.39733 20.3702 9.35833 20.3843 9.3177 20.3911L6.87606 20.4452C6.75678 20.4498 6.64032 20.409 6.55127 20.3314C6.46223 20.2539 6.40756 20.1455 6.39881 20.0294C6.39401 19.9125 6.43567 19.7984 6.51508 19.7108C6.59449 19.6233 6.7055 19.569 6.82493 19.5595L9.27082 19.4805C9.38297 19.4803 9.49148 19.5193 9.57665 19.5905C9.66183 19.6617 9.71802 19.7603 9.73503 19.8685C9.75205 19.9767 9.72876 20.0872 9.66938 20.18C9.61001 20.2729 9.51849 20.3419 9.41144 20.3745L9.43275 20.3495Z" fill="white"/>
<path d="M32.7231 19.8413C32.6879 19.8632 32.6489 19.8787 32.6081 19.887L30.1579 19.9161C30.0929 19.9222 30.0273 19.915 29.9653 19.8948C29.9033 19.8747 29.8463 19.8422 29.798 19.7993C29.7497 19.7564 29.711 19.7042 29.6846 19.6459C29.6582 19.5876 29.6445 19.5246 29.6445 19.4608C29.6445 19.3971 29.6582 19.334 29.6846 19.2757C29.711 19.2175 29.7497 19.1652 29.798 19.1223C29.8463 19.0795 29.9033 19.0469 29.9653 19.0268C30.0273 19.0067 30.0929 18.9994 30.1579 19.0055L32.5995 18.9473C32.7242 18.9495 32.843 18.9996 32.93 19.0868C33.017 19.1741 33.0651 19.2913 33.064 19.413C33.06 19.5063 33.0268 19.5961 32.9689 19.6704C32.911 19.7448 32.8312 19.8 32.7402 19.8288L32.7231 19.8413Z" fill="white"/>
<path d="M28.7703 14.8415C28.6605 14.8744 28.5422 14.8668 28.4377 14.8201C28.3333 14.7735 28.25 14.691 28.2038 14.5884C28.1575 14.4858 28.1515 14.3702 28.1868 14.2636C28.2221 14.1569 28.2963 14.0666 28.3953 14.0098L30.4833 12.7624C30.5345 12.7309 30.5915 12.7096 30.6512 12.6997C30.7108 12.6898 30.7718 12.6915 30.8308 12.7046C30.8898 12.7177 30.9455 12.7421 30.9948 12.7763C31.0441 12.8104 31.0861 12.8537 31.1182 12.9037C31.1509 12.9541 31.173 13.0103 31.1832 13.0691C31.1934 13.1279 31.1915 13.1881 31.1776 13.2461C31.1637 13.3042 31.1382 13.359 31.1024 13.4073C31.0665 13.4556 31.0212 13.4964 30.9691 13.5275L28.8811 14.775C28.8472 14.8015 28.81 14.8239 28.7703 14.8415Z" fill="white"/>
<path d="M24.8719 11.2014C24.7521 11.235 24.6236 11.221 24.5143 11.1627C24.405 11.1043 24.3237 11.0061 24.2881 10.8896C24.2537 10.7727 24.2674 10.6474 24.3265 10.5403L25.5111 8.46115C25.5788 8.37045 25.6781 8.30696 25.7904 8.28254C25.9026 8.25812 26.0202 8.27446 26.121 8.32849C26.2218 8.38252 26.299 8.47054 26.3381 8.57609C26.3772 8.68163 26.3755 8.79747 26.3335 8.90193L25.1574 10.9811C25.0951 11.0879 24.9927 11.1669 24.8719 11.2014Z" fill="white"/>
</svg>
