<svg width="40" height="40" viewBox="0 0 40 40" fill="none" xmlns="http://www.w3.org/2000/svg">
<circle cx="20" cy="20" r="20" fill="#29006C"/>
<g clip-path="url(#clip0_1_86)">
<path fill-rule="evenodd" clip-rule="evenodd" d="M19.8552 10.4511C14.832 10.4511 10.7598 14.5189 10.7598 19.5368C10.7598 24.5547 14.832 28.6225 19.8552 28.6225C20.4832 28.6225 20.9922 29.131 20.9922 29.7582C20.9922 30.3855 20.4832 30.8939 19.8552 30.8939C13.5761 30.8939 8.48593 25.8091 8.48593 19.5368C8.48593 13.2644 13.5761 8.17969 19.8552 8.17969C26.1343 8.17969 31.2245 13.2644 31.2245 19.5368C31.2245 20.1641 30.7155 20.6725 30.0876 20.6725C29.4597 20.6725 28.9507 20.1641 28.9507 19.5368C28.9507 14.5189 24.8785 10.4511 19.8552 10.4511ZM33.0594 23.1831C33.5551 23.5682 33.6444 24.2818 33.2589 24.7769L27.9532 31.5911C27.7552 31.8455 27.4584 32.0039 27.1367 32.0268C26.8151 32.0497 26.4988 31.935 26.2666 31.7114L23.6138 29.1561C23.1618 28.7207 23.1487 28.0017 23.5846 27.5503C24.0204 27.0987 24.7402 27.0857 25.1921 27.5211L26.9347 29.1996L31.464 23.3824C31.8495 22.8873 32.5638 22.7981 33.0594 23.1831ZM20.9922 12.7225C20.9922 12.0953 20.4832 11.5868 19.8552 11.5868C19.2273 11.5868 18.7183 12.0953 18.7183 12.7225V19.5368C18.7183 19.838 18.8381 20.1269 19.0513 20.3399L22.4621 23.747C22.9061 24.1905 23.626 24.1905 24.0699 23.747C24.5139 23.3035 24.5139 22.5844 24.0699 22.1409L20.9922 19.0664V12.7225Z" fill="#FBAE3C"/>
<path fill-rule="evenodd" clip-rule="evenodd" d="M19.3985 9.46716C13.8756 9.46716 9.39848 13.9443 9.39848 19.4672C9.39848 24.99 13.8756 29.4672 19.3985 29.4672C20.0889 29.4672 20.6485 30.0268 20.6485 30.7172C20.6485 31.4075 20.0889 31.9672 19.3985 31.9672C12.4949 31.9672 6.89848 26.3707 6.89848 19.4672C6.89848 12.5636 12.4949 6.96716 19.3985 6.96716C26.302 6.96716 31.8985 12.5636 31.8985 19.4672C31.8985 20.1575 31.3389 20.7172 30.6485 20.7172C29.9581 20.7172 29.3985 20.1575 29.3985 19.4672C29.3985 13.9443 24.9214 9.46716 19.3985 9.46716ZM33.9159 23.4804C34.4609 23.9043 34.559 24.6897 34.1352 25.2345L28.3019 32.7345C28.0841 33.0145 27.7579 33.1888 27.4041 33.214C27.0505 33.2393 26.7027 33.113 26.4475 32.8669L23.5309 30.0544C23.0339 29.5753 23.0195 28.7839 23.4987 28.287C23.9779 27.79 24.7692 27.7757 25.2661 28.2549L27.182 30.1023L32.1617 23.6998C32.5856 23.1548 33.371 23.0567 33.9159 23.4804ZM20.6485 11.9672C20.6485 11.2768 20.0889 10.7172 19.3985 10.7172C18.7081 10.7172 18.1485 11.2768 18.1485 11.9672V19.4672C18.1485 19.7987 18.2802 20.1167 18.5146 20.351L22.2646 24.101C22.7527 24.5892 23.5442 24.5892 24.0324 24.101C24.5205 23.6129 24.5205 22.8214 24.0324 22.3333L20.6485 18.9494V11.9672Z" fill="#1874FF"/>
</g>
<defs>
<clipPath id="clip0_1_86">
<rect width="30" height="30" fill="white" transform="translate(4.39844 4.46716)"/>
</clipPath>
</defs>
</svg>
