<svg width="40" height="40" viewBox="0 0 40 40" fill="none" xmlns="http://www.w3.org/2000/svg">
<path d="M20 0L24.622 2.67819H29.9784L32.6566 7.34341L37.3218 10.0216V15.378L40 20L37.3218 24.622V29.9784L32.6566 32.6566L29.9784 37.3218H24.622L20 40L15.378 37.3218H10.0216L7.34341 32.6566L2.67819 29.9784V24.622L0 20L2.67819 15.378V10.0216L7.34341 7.34341L10.0216 2.67819H15.378L20 0Z" fill="url(#paint0_linear_1_49)"/>
<path d="M19.9991 34.6443C11.9213 34.6443 5.35547 28.0784 5.35547 20.0007C5.35547 11.9229 11.9213 5.35706 19.9991 5.35706C28.0769 5.35706 34.6427 11.9229 34.6427 20.0007C34.6427 28.0784 28.0769 34.6443 19.9991 34.6443ZM19.9991 6.60976C12.6125 6.60976 6.60817 12.6141 6.60817 20.0007C6.60817 27.3873 12.6125 33.3916 19.9991 33.3916C27.3857 33.3916 33.39 27.3873 33.39 20.0007C33.39 12.6141 27.3857 6.60976 19.9991 6.60976Z" fill="white"/>
<path d="M18.4008 25.4425L12.0509 20.3885C11.5326 19.9566 11.4462 19.2222 11.8781 18.7039C12.3101 18.1855 13.0444 18.0991 13.5628 18.5311L19.0056 22.8939L26.2626 14.773C26.6946 14.2978 27.4721 14.2546 27.9473 14.6866C28.4224 15.1186 28.4656 15.8961 28.0336 16.3713L20.0423 25.3129C19.6103 25.7881 18.876 25.8313 18.4008 25.4425Z" fill="white"/>
<defs>
<linearGradient id="paint0_linear_1_49" x1="20" y1="0" x2="20" y2="40" gradientUnits="userSpaceOnUse">
<stop stop-color="#28AC8A"/>
<stop offset="1" stop-color="#7ECDB9"/>
</linearGradient>
</defs>
</svg>
