<svg width="75" height="75" viewBox="0 0 75 75" fill="none" xmlns="http://www.w3.org/2000/svg">
<circle cx="37.5" cy="37.5" r="37.5" fill="#F6F9FC"/>
<g clip-path="url(#clip0_1973_5020)">
<path d="M36.8074 9.375H36.8115V9.37594C39.5132 9.37641 42.1243 9.77721 44.5889 10.5239C44.9831 10.6431 45.3809 10.7745 45.7814 10.9163C47.8084 11.6353 49.7246 12.5894 51.4993 13.7458C51.6243 13.827 51.6614 13.9969 51.5826 14.125C51.5744 14.1377 51.5648 14.1504 51.5552 14.1616L49.5923 16.742C49.5053 16.8565 49.3469 16.8809 49.2316 16.8007L49.227 16.7978C48.728 16.482 48.2126 16.183 47.6834 15.9019C47.1501 15.6194 46.6081 15.3575 46.0583 15.1186L46.0574 15.1181C43.2166 13.8824 40.0905 13.1991 36.8069 13.1991H36.8042V13.1981C33.533 13.1981 30.4147 13.8791 27.5793 15.1087C27.1161 15.3096 26.6615 15.5246 26.2175 15.7522C23.9255 16.9274 21.8436 18.4747 20.0468 20.3168L20.045 20.3187L20.0327 20.3305C19.4366 20.9425 18.8722 21.5868 18.3426 22.2608C17.8098 22.939 17.3103 23.6481 16.8494 24.384C14.4795 28.1668 13.1044 32.6685 13.1044 37.4998V37.5026H13.1035C13.1035 40.8564 13.7677 44.0534 14.967 46.9604C15.163 47.4358 15.3726 47.9014 15.5946 48.3567C16.7409 50.7061 18.2501 52.8411 20.0473 54.6832L20.0491 54.685L20.0592 54.6958C20.6561 55.3074 21.2856 55.8865 21.9434 56.43C22.6048 56.9768 23.2965 57.4883 24.0147 57.9609C27.7043 60.3906 32.0956 61.8005 36.8074 61.8005H36.8102V61.8019C40.0822 61.8014 43.1996 61.1209 46.035 59.8913C46.4987 59.6904 46.9528 59.4754 47.3969 59.2478C49.6889 58.0726 51.7712 56.5253 53.5675 54.6832L53.5698 54.6808L53.5835 54.6672C54.1786 54.0557 54.7426 53.4122 55.2718 52.7392C55.8051 52.061 56.304 51.3514 56.765 50.6155C59.1353 46.8328 60.5099 42.331 60.5099 37.5002V37.4955H60.5113C60.5109 35.4685 60.2678 33.4964 59.8096 31.6116C59.7336 31.2976 59.6535 30.993 59.5702 30.6983C59.1298 29.1463 58.5416 27.6576 57.8242 26.25C57.762 26.1285 57.7977 25.9811 57.903 25.9023L60.4395 23.8462C60.5548 23.7523 60.7228 23.7725 60.8139 23.8912C60.8221 23.9015 60.829 23.9128 60.835 23.9241H60.8359L60.8377 23.9278L60.8405 23.9335C61.143 24.4957 61.4291 25.0716 61.6951 25.6587C61.9615 26.2463 62.2083 26.8437 62.4344 27.4487C63.6003 30.5707 64.2393 33.9601 64.2393 37.5007V37.5035H64.2384C64.238 41.3853 63.4698 45.085 62.0819 48.4486C61.8571 48.9945 61.6145 49.5337 61.355 50.0645C60.0261 52.789 58.2802 55.2595 56.2047 57.3879L56.2029 57.3898L56.1928 57.3991C55.5006 58.1083 54.7714 58.779 54.0088 59.4093C53.243 60.0424 52.4428 60.6337 51.6129 61.1805C47.3419 63.9927 42.2594 65.6255 36.8069 65.6255H36.8042V65.6245C33.018 65.6241 29.4095 64.8365 26.1287 63.4135C25.5963 63.1831 25.0703 62.9339 24.5522 62.6678C21.8953 61.3058 19.4852 59.5153 17.4092 57.3879L17.4074 57.3855L17.3946 57.3719C16.7043 56.6632 16.051 55.917 15.4376 55.1365C14.8206 54.3513 14.2433 53.531 13.7105 52.6801C10.9676 48.3003 9.375 43.0899 9.375 37.5002V37.497H9.37592C9.37637 33.6152 10.1445 29.9159 11.532 26.5518C11.7572 26.006 11.9998 25.4672 12.2594 24.9355C13.5878 22.2115 15.3342 19.741 17.4092 17.6126L17.411 17.6107L17.4229 17.5999C18.1142 16.8917 18.8434 16.221 19.6046 15.5917C20.3709 14.959 21.1707 14.3672 22.001 13.8209C26.2733 11.0073 31.3554 9.375 36.8074 9.375ZM51.9777 17.0245L59.6544 9.50406L60.1657 14.5761L65.625 15.2758L57.4045 23.4425L53.4045 23.7945L37.4432 39.0147L35.9724 37.7161L51.091 21.5244L51.9777 17.0245ZM36.8074 28.5976H36.8143V28.5985C37.3306 28.599 37.8333 28.6445 38.3171 28.7318C38.3734 28.7422 38.4531 28.7577 38.5538 28.7788H38.5551C38.958 28.8633 39.3526 28.9773 39.7357 29.1181C39.8749 29.1688 39.9472 29.3255 39.8973 29.4682C39.8877 29.4964 39.873 29.5217 39.8561 29.5442L39.8566 29.5447L37.7138 32.3625C37.6538 32.4419 37.5586 32.4771 37.4675 32.4648V32.4658L37.4551 32.4639L37.3599 32.4526L37.3517 32.4512L37.2693 32.4423L37.2624 32.4414C37.1196 32.4287 36.9681 32.4217 36.8074 32.4217H36.8047V32.4203C36.1221 32.4207 35.4703 32.5634 34.8779 32.8206C34.78 32.8633 34.6848 32.9084 34.5937 32.9548C34.1167 33.1993 33.6818 33.5227 33.3051 33.909L33.3032 33.9108L33.2909 33.9221C33.17 34.0469 33.0556 34.1788 32.9475 34.3163C32.8363 34.4576 32.7319 34.6064 32.6353 34.7603C32.141 35.5497 31.8544 36.4907 31.8544 37.4998V37.5026H31.853C31.8535 38.2033 31.9926 38.8711 32.2435 39.478C32.2852 39.5789 32.3291 39.6765 32.3744 39.7694C32.6129 40.2589 32.9288 40.7043 33.3051 41.0901L33.3069 41.0924L33.3179 41.1042C33.4396 41.2281 33.5683 41.3464 33.7024 41.4566C33.8402 41.5707 33.9853 41.6782 34.1354 41.7772C34.9059 42.2836 35.8237 42.5779 36.8074 42.5779H36.8102V42.5788C37.4936 42.5788 38.1454 42.4361 38.7369 42.1789C38.8353 42.1362 38.9301 42.0912 39.0211 42.0447C39.4986 41.7997 39.933 41.4764 40.3093 41.0901L40.3116 41.0878L40.3207 41.0788C40.3876 41.0098 40.4526 40.9399 40.5125 40.8709C40.5725 40.8019 40.6352 40.7245 40.6993 40.641C41.0097 40.2373 41.2619 39.7849 41.4413 39.2982C41.4619 39.2414 41.499 39.1954 41.5453 39.1649L45.0078 36.3574C45.1236 36.2636 45.2911 36.2837 45.3827 36.4025C45.4147 36.4443 45.4326 36.4926 45.4381 36.5419H45.4395L45.4417 36.563L45.4427 36.5775L45.4536 36.6949V36.6982H45.4546L45.4646 36.8258V36.8282C45.4807 37.0534 45.4898 37.2773 45.4898 37.4998V37.5026H45.4884C45.488 38.7308 45.2449 39.9013 44.8059 40.9657C44.7354 41.137 44.6581 41.3079 44.5757 41.4773C44.1541 42.3404 43.602 43.1227 42.946 43.7948L42.9442 43.7967L42.9295 43.8094C42.7135 44.03 42.4864 44.2397 42.2498 44.4355C42.0071 44.6354 41.7535 44.8231 41.4917 44.9954C40.1395 45.8852 38.5318 46.4019 36.8069 46.4019H36.8042V46.4005C35.6062 46.4 34.4646 46.1508 33.4268 45.7008C33.2597 45.6285 33.0927 45.5492 32.9279 45.4647C32.086 45.0324 31.3229 44.4664 30.6674 43.7944L30.6656 43.7925L30.6505 43.7756C30.4362 43.5545 30.233 43.3222 30.0426 43.08C29.8471 42.8313 29.6645 42.5718 29.496 42.3028C28.6281 40.9169 28.1241 39.2682 28.1241 37.5002V37.497H28.125C28.1255 36.2692 28.369 35.0987 28.8075 34.0347C28.8785 33.8634 28.9554 33.6926 29.0378 33.5232C29.4585 32.6615 30.0105 31.8796 30.667 31.2066L30.6674 31.2061L30.667 31.2057L30.6688 31.2038C30.8862 30.9813 31.1183 30.7678 31.3637 30.565C31.6063 30.3646 31.8594 30.1774 32.1217 30.0046C33.4749 29.1143 35.0835 28.5976 36.8074 28.5976ZM37.262 32.4414C37.1214 32.4235 37.0189 32.2959 37.0276 32.1513L37.262 32.4414ZM36.8074 18.907H36.812V18.9079C38.4343 18.9084 40.0058 19.1271 41.4986 19.5359C41.7416 19.6025 41.9833 19.6743 42.2227 19.7513C43.4518 20.1446 44.6265 20.6702 45.7297 21.3109C45.8578 21.3855 45.9032 21.553 45.8304 21.6845C45.8235 21.6957 45.8167 21.7075 45.8084 21.7178L45.807 21.7192L43.8185 24.3343C43.7352 24.4431 43.5873 24.4704 43.4738 24.4033L43.4674 24.4C43.1982 24.2559 42.9176 24.1165 42.626 23.9851C42.3326 23.8523 42.0378 23.7302 41.7421 23.6195C40.2045 23.0441 38.5419 22.7301 36.8069 22.7301H36.8042V22.7292C34.8161 22.7292 32.9214 23.1436 31.198 23.8908C30.9261 24.009 30.6496 24.14 30.3703 24.2826L30.3493 24.2925C28.9655 25.0054 27.7075 25.9417 26.6203 27.0559L26.6185 27.0578L26.608 27.0686C26.2477 27.4388 25.9058 27.8303 25.5849 28.2386C25.2612 28.6506 24.9577 29.082 24.6776 29.5292C23.2379 31.828 22.4025 34.5641 22.4025 37.4998V37.5026H22.4016C22.4016 39.5409 22.8058 41.4839 23.5345 43.2504C23.6536 43.5395 23.7813 43.823 23.9159 44.0989C24.6121 45.5262 25.5295 46.8234 26.6217 47.9432L26.6235 47.9451C26.9907 48.3219 27.3756 48.6767 27.7748 49.0062C28.1767 49.338 28.5974 49.6492 29.0337 49.9364C31.2758 51.4129 33.945 52.269 36.8079 52.269H36.8106V52.2699C38.7987 52.2699 40.6938 51.8559 42.4173 51.1088C42.6993 50.9863 42.9758 50.8558 43.2449 50.7174C44.637 50.0035 45.9023 49.0635 46.9945 47.9432L46.9963 47.9413C47.3639 47.5644 47.71 47.1702 48.0313 46.761C48.3549 46.3484 48.6584 45.9176 48.9386 45.4698C50.3792 43.1706 51.2146 40.4345 51.2146 37.4998H51.2137V37.4927H51.2146C51.2146 36.5818 51.1331 35.6882 50.9784 34.8218C50.955 34.6923 50.9276 34.5505 50.896 34.3999C50.7463 33.6795 50.5453 32.9806 50.2995 32.3086C50.2556 32.1879 50.2995 32.0556 50.3989 31.9861L52.9912 29.8845C53.107 29.7906 53.2745 29.8108 53.3656 29.9296C53.3794 29.9479 53.3904 29.9662 53.399 29.9859L53.4013 29.9906L53.4032 29.9943L53.4036 29.9939C53.5387 30.3078 53.6687 30.6345 53.7927 30.9729C53.9149 31.307 54.0276 31.6426 54.1287 31.9786C54.6574 33.724 54.9426 35.5784 54.9426 37.4993V37.5021H54.9413C54.9413 40.0679 54.4336 42.5136 53.5162 44.7368C53.3679 45.0967 53.2068 45.4534 53.0351 45.8054C52.1567 47.6067 51.0027 49.2399 49.6307 50.646L49.6284 50.6479L49.6184 50.6578C49.1615 51.1247 48.6809 51.5678 48.1783 51.9831C47.672 52.4018 47.1428 52.7927 46.5944 53.1536C43.77 55.0131 40.4105 56.0921 36.8069 56.0921H36.8042C34.3016 56.0916 31.9162 55.5711 29.7473 54.6306C29.3962 54.4781 29.0483 54.3133 28.705 54.1373C26.9485 53.2362 25.3551 52.0535 23.9832 50.647L23.9813 50.6451L23.9685 50.631C23.5139 50.164 23.0832 49.6722 22.6794 49.1578C22.2711 48.6387 21.8898 48.0962 21.5373 47.5339C19.7237 44.6387 18.6713 41.1938 18.6713 37.4998V37.497H18.6722C18.6726 34.9312 19.1808 32.4855 20.0981 30.2618C20.2464 29.9019 20.4071 29.5452 20.5788 29.1932C21.4568 27.3933 22.6108 25.7605 23.9827 24.3535L23.9832 24.353L23.9827 24.3526L23.9845 24.3507L23.9964 24.3394C24.4524 23.8724 24.933 23.4303 25.4347 23.0159C25.9415 22.5973 26.4702 22.2063 27.0186 21.8454C29.8439 19.986 33.2043 18.907 36.8074 18.907Z" fill="url(#paint0_linear_1973_5020)"/>
</g>
<defs>
<linearGradient id="paint0_linear_1973_5020" x1="37.5" y1="9.375" x2="37.5" y2="65.6255" gradientUnits="userSpaceOnUse">
<stop stop-color="#2C0BF1"/>
<stop offset="1" stop-color="#0BF1C8"/>
</linearGradient>
<clipPath id="clip0_1973_5020">
<rect width="56.25" height="56.25" fill="white" transform="translate(9.375 9.375)"/>
</clipPath>
</defs>
</svg>
