<svg width="55" height="60" viewBox="0 0 55 60" fill="none" xmlns="http://www.w3.org/2000/svg">
<path d="M0 14.9707L22 8.97069V5.9707L0 1.4707V14.9707Z" fill="#FBAE3C"/>
<path d="M44 60.0004H11L20.1667 9.00195H34.8333L44 60.0004Z" fill="#CFD8DC"/>
<path d="M19.0889 15L16.9311 27H38.0694L35.9116 15H19.0889ZM42.1137 49.4999L39.9559 37.5H15.0446L12.8867 49.4999H42.1137ZM22.0002 3H33.0002V12H22.0002V3Z" fill="#DC0032"/>
<path d="M55 15L33 8.99999V5.99999L55 1.5V15Z" fill="#FBAE3C"/>
<path d="M22.0011 3H33.0011L27.5011 0L22.0011 3ZM18.6406 18H36.3616L35.8538 15H19.1485L18.6406 18Z" fill="#D32F2F"/>
<path d="M16.5 9.00195H38.5V15.0019H16.5V9.00195ZM31.1667 36.0004V31.5004C31.1667 30.7048 30.7804 29.9417 30.0927 29.3791C29.4051 28.8165 28.4725 28.5004 27.5 28.5004C26.5275 28.5004 25.5949 28.8165 24.9073 29.3791C24.2196 29.9417 23.8333 30.7048 23.8333 31.5004V36.0004H31.1667Z" fill="#0A2540"/>
</svg>
