<svg width="76" height="75" viewBox="0 0 76 75" fill="none" xmlns="http://www.w3.org/2000/svg">
<circle cx="38" cy="37.5" r="37.5" fill="#F6F9FC"/>
<g clip-path="url(#clip0_1980_3292)">
<path fill-rule="evenodd" clip-rule="evenodd" d="M37.4911 29.1165C39.2041 29.1165 40.8786 29.6962 42.3028 30.7822C43.7271 31.8682 44.8372 33.4118 45.4927 35.2178C46.1482 37.0237 46.3197 39.011 45.9855 40.9282C45.6513 42.8454 44.8265 44.6065 43.6152 45.9887C42.404 47.371 40.8608 48.3123 39.1808 48.6936C37.5007 49.075 35.7593 48.8793 34.1768 48.1312C32.5942 47.3831 31.2416 46.1163 30.2899 44.491C29.3383 42.8657 28.8303 40.9548 28.8303 39C28.8303 36.3788 29.7428 33.8648 31.367 32.0113C32.9912 30.1578 35.1941 29.1165 37.4911 29.1165ZM20.6095 59.973C20.9614 59.9743 21.2987 60.1344 21.5476 60.4184C21.7964 60.7024 21.9368 61.0873 21.9379 61.4889C21.9379 61.6878 21.9035 61.8847 21.8367 62.0684C21.7699 62.252 21.672 62.4188 21.5486 62.5592C21.4251 62.6996 21.2787 62.8108 21.1175 62.8864C20.9564 62.9621 20.7837 63.0007 20.6095 63H12.6603C12.3091 63 11.9723 62.8408 11.724 62.5574C11.4757 62.2741 11.3362 61.8897 11.3362 61.4889V52.5554C11.3375 52.2567 11.4162 51.9651 11.5622 51.7172C11.7083 51.4693 11.9153 51.2762 12.1572 51.1621C12.3991 51.048 12.6651 51.018 12.9219 51.0758C13.1787 51.1337 13.4148 51.2768 13.6006 51.4873L13.6308 51.5267C13.8673 51.802 14.0031 52.1699 14.0103 52.5554V59.973H20.6095ZM20.6095 15C20.9617 15.0011 21.2994 15.1602 21.5497 15.443L21.5799 15.4824C21.7569 15.6977 21.8747 15.9674 21.9188 16.2583C21.9629 16.5491 21.9314 16.8484 21.8282 17.119C21.725 17.3897 21.5545 17.6199 21.338 17.7813C21.1214 17.9427 20.8681 18.0281 20.6095 18.0271H14.0103V25.4447C13.991 25.8311 13.8429 26.1946 13.5963 26.4604C13.3496 26.7262 13.0233 26.8743 12.684 26.8743C12.3448 26.8743 12.0184 26.7262 11.7718 26.4604C11.5252 26.1946 11.3771 25.8311 11.3577 25.4447V16.516C11.3533 16.3191 11.3835 16.1231 11.4465 15.9397C11.5094 15.7563 11.6039 15.5891 11.7244 15.4479C11.8459 15.3051 11.9914 15.1919 12.1523 15.1149C12.3131 15.0379 12.4859 14.9988 12.6603 15H20.6095ZM54.3728 18.0271C54.1986 18.0277 54.0259 17.9891 53.8647 17.9135C53.7036 17.8378 53.5571 17.7266 53.4337 17.5863C53.3103 17.4459 53.2124 17.2791 53.1456 17.0954C53.0787 16.9118 53.0444 16.7149 53.0444 16.516C53.0455 16.1144 53.1858 15.7295 53.4347 15.4455C53.6836 15.1615 54.0208 15.0013 54.3728 15H62.3176C62.6685 15.0018 63.0046 15.1609 63.2536 15.443C63.3771 15.5838 63.4749 15.7511 63.5416 15.9353C63.6082 16.1194 63.6422 16.3168 63.6418 16.516V25.4447C63.6418 25.6431 63.6075 25.8396 63.541 26.0229C63.4744 26.2062 63.3769 26.3728 63.2539 26.5131C63.131 26.6535 62.985 26.7648 62.8244 26.8407C62.6637 26.9166 62.4915 26.9557 62.3176 26.9557C61.9664 26.9544 61.6298 26.795 61.381 26.512C61.1323 26.2291 60.9914 25.8455 60.9892 25.4447V18.0271H54.3728ZM54.3728 63C54.1986 63.0007 54.0259 62.9621 53.8647 62.8864C53.7036 62.8108 53.5571 62.6996 53.4337 62.5592C53.3103 62.4188 53.2124 62.252 53.1456 62.0684C53.0787 61.8847 53.0444 61.6878 53.0444 61.4889C53.0455 61.0873 53.1858 60.7024 53.4347 60.4184C53.6836 60.1344 54.0208 59.9743 54.3728 59.973H60.9935V52.5554C60.9935 52.1546 61.133 51.7703 61.3813 51.4869C61.6296 51.2035 61.9664 51.0443 62.3176 51.0443C62.6688 51.0443 63.0056 51.2035 63.2539 51.4869C63.5023 51.7703 63.6418 52.1546 63.6418 52.5554V61.4889C63.6418 61.8897 63.5023 62.2741 63.2539 62.5574C63.0056 62.8408 62.6688 63 62.3176 63H54.3728ZM11.4224 37.7597C12.6391 36.0762 13.9578 34.4923 15.369 33.0197C21.554 26.621 28.895 23.1756 36.4646 22.9935C44.0342 22.8113 51.7633 25.8975 58.7636 32.4881C60.4883 34.1157 62.1084 35.8823 63.6116 37.7744C63.8505 38.0743 63.991 38.4594 64.0091 38.8641C64.0272 39.2689 63.9217 39.6683 63.7108 39.9943C62.0025 42.769 59.9595 45.2546 57.6422 47.3774C52.1413 52.3422 45.3284 55.0333 38.3149 55.0115C31.2373 55.0203 24.333 52.5138 18.5607 47.8401C15.8388 45.6408 13.4023 43.0145 11.3232 40.0386C11.0977 39.7082 10.9837 39.2964 11.0019 38.8781C11.0201 38.4598 11.1693 38.0629 11.4224 37.7597ZM17.435 35.6038C16.4182 36.6611 15.4534 37.7817 14.5452 38.9607C16.2504 41.2276 18.1912 43.249 20.3248 44.9803C25.5788 49.2368 31.8629 51.5229 38.3063 51.5218C44.6257 51.5343 50.7627 49.1055 55.7185 44.6309C57.4885 43.0084 59.0814 41.1494 60.463 39.0935C59.3111 37.7096 58.0899 36.4031 56.8054 35.1805C50.3831 29.146 43.3398 26.3208 36.5034 26.4832C29.6671 26.6456 23.0378 29.7662 17.4134 35.6038H17.435ZM37.5127 35.3872C38.1399 35.3872 38.753 35.5995 39.2744 35.9973C39.7958 36.395 40.2021 36.9603 40.442 37.6216C40.6818 38.283 40.7443 39.0106 40.6216 39.7125C40.499 40.4144 40.1966 41.0591 39.7528 41.5648C39.309 42.0706 38.7438 42.4147 38.1285 42.5538C37.5133 42.6928 36.8757 42.6204 36.2965 42.3459C35.7173 42.0713 35.2225 41.6068 34.8747 41.0113C34.5269 40.4157 34.3417 39.7157 34.3425 39C34.3425 38.5252 34.4246 38.055 34.5839 37.6163C34.7433 37.1777 34.9769 36.7792 35.2713 36.4437C35.5657 36.1081 35.9153 35.8421 36.2999 35.6608C36.6844 35.4796 37.0966 35.3866 37.5127 35.3872Z" fill="url(#paint0_linear_1980_3292)"/>
</g>
<defs>
<linearGradient id="paint0_linear_1980_3292" x1="37.5055" y1="15" x2="37.5055" y2="63" gradientUnits="userSpaceOnUse">
<stop stop-color="#3419A0"/>
<stop offset="1" stop-color="#24D897"/>
</linearGradient>
<clipPath id="clip0_1980_3292">
<rect width="53" height="48" fill="white" transform="translate(11 15)"/>
</clipPath>
</defs>
</svg>
