<svg width="81" height="81" viewBox="0 0 81 81" fill="none" xmlns="http://www.w3.org/2000/svg">
<circle cx="40.5948" cy="40.085" r="39.9151" fill="#E3335B"/>
<circle cx="40.5" cy="40.5" r="7.5" fill="white"/>
<path d="M63.5031 35.3905C60.3377 30.3898 53.1373 22 40.5 22C27.8627 22 20.6623 30.3898 17.4969 35.3905C15.501 38.5217 15.501 42.4782 17.4969 45.6095C20.6623 50.6102 27.8627 59 40.5 59C53.1373 59 60.3377 50.6102 63.5031 45.6095C65.499 42.4782 65.499 38.5217 63.5031 35.3905ZM40.5 52.3779C33.7371 52.3779 28.2545 47.0599 28.2545 40.5C28.2545 33.94 33.7371 28.622 40.5 28.622C47.2629 28.622 52.7455 33.94 52.7455 40.5C52.7387 47.0572 47.2602 52.3713 40.5 52.3779Z" fill="white"/>
</svg>
