<svg width="150" height="207" viewBox="0 0 150 207" fill="none" xmlns="http://www.w3.org/2000/svg">
<circle cx="12.5" cy="23.5" r="2.5" fill="#E01A47"/>
<circle cx="37.5" cy="23.5" r="2.5" fill="#E01A47"/>
<circle cx="62.5" cy="23.5" r="2.5" fill="#E01A47"/>
<circle cx="87.5" cy="23.5" r="2.5" fill="#E01A47"/>
<circle cx="112.5" cy="23.5" r="2.5" fill="#E01A47"/>
<circle cx="137.5" cy="23.5" r="2.5" fill="#E01A47"/>
<circle cx="12.5" cy="55.5" r="2.5" fill="#E01A47"/>
<circle cx="37.5" cy="55.5" r="2.5" fill="#E01A47"/>
<circle cx="62.5" cy="55.5" r="2.5" fill="#E01A47"/>
<circle cx="87.5" cy="55.5" r="2.5" fill="#E01A47"/>
<circle cx="112.5" cy="55.5" r="2.5" fill="#E01A47"/>
<circle cx="137.5" cy="55.5" r="2.5" fill="#E01A47"/>
<circle cx="12.5" cy="87.5" r="2.5" fill="#E01A47"/>
<circle cx="37.5" cy="87.5" r="2.5" fill="#E01A47"/>
<circle cx="62.5" cy="87.5" r="2.5" fill="#E01A47"/>
<circle cx="87.5" cy="87.5" r="2.5" fill="#E01A47"/>
<circle cx="112.5" cy="87.5" r="2.5" fill="#E01A47"/>
<circle cx="137.5" cy="87.5" r="2.5" fill="#E01A47"/>
<circle cx="12.5" cy="119.5" r="2.5" fill="#E01A47"/>
<circle cx="37.5" cy="119.5" r="2.5" fill="#E01A47"/>
<circle cx="62.5" cy="119.5" r="2.5" fill="#E01A47"/>
<circle cx="87.5" cy="119.5" r="2.5" fill="#E01A47"/>
<circle cx="112.5" cy="119.5" r="2.5" fill="#E01A47"/>
<circle cx="137.5" cy="119.5" r="2.5" fill="#E01A47"/>
<circle cx="12.5" cy="151.5" r="2.5" fill="#E01A47"/>
<circle cx="37.5" cy="151.5" r="2.5" fill="#E01A47"/>
<circle cx="62.5" cy="151.5" r="2.5" fill="#E01A47"/>
<circle cx="87.5" cy="151.5" r="2.5" fill="#E01A47"/>
<circle cx="112.5" cy="151.5" r="2.5" fill="#E01A47"/>
<circle cx="137.5" cy="151.5" r="2.5" fill="#E01A47"/>
<circle cx="12.5" cy="183.5" r="2.5" fill="#E01A47"/>
<circle cx="37.5" cy="183.5" r="2.5" fill="#E01A47"/>
<circle cx="62.5" cy="183.5" r="2.5" fill="#E01A47"/>
<circle cx="87.5" cy="183.5" r="2.5" fill="#E01A47"/>
<circle cx="112.5" cy="183.5" r="2.5" fill="#E01A47"/>
<circle cx="137.5" cy="183.5" r="2.5" fill="#E01A47"/>
</svg>
