<svg width="151" height="206" viewBox="0 0 151 206" fill="none" xmlns="http://www.w3.org/2000/svg">
<circle cx="138.5" cy="182.5" r="2.5" transform="rotate(-180 138.5 182.5)" fill="#E01A47"/>
<circle cx="113.5" cy="182.5" r="2.5" transform="rotate(-180 113.5 182.5)" fill="#E01A47"/>
<circle cx="88.5" cy="182.5" r="2.5" transform="rotate(-180 88.5 182.5)" fill="#E01A47"/>
<circle cx="63.5" cy="182.5" r="2.5" transform="rotate(-180 63.5 182.5)" fill="#E01A47"/>
<circle cx="38.5" cy="182.5" r="2.5" transform="rotate(-180 38.5 182.5)" fill="#E01A47"/>
<circle cx="13.5" cy="182.5" r="2.5" transform="rotate(-180 13.5 182.5)" fill="#E01A47"/>
<circle cx="138.5" cy="150.5" r="2.5" transform="rotate(-180 138.5 150.5)" fill="#E01A47" fill-opacity="0.5"/>
<circle cx="113.5" cy="150.5" r="2.5" transform="rotate(-180 113.5 150.5)" fill="#E01A47" fill-opacity="0.5"/>
<circle cx="88.5" cy="150.5" r="2.5" transform="rotate(-180 88.5 150.5)" fill="#E01A47" fill-opacity="0.5"/>
<circle cx="63.5" cy="150.5" r="2.5" transform="rotate(-180 63.5 150.5)" fill="#E01A47" fill-opacity="0.5"/>
<circle cx="38.5" cy="150.5" r="2.5" transform="rotate(-180 38.5 150.5)" fill="#E01A47" fill-opacity="0.5"/>
<circle cx="13.5" cy="150.5" r="2.5" transform="rotate(-180 13.5 150.5)" fill="#E01A47" fill-opacity="0.5"/>
<circle cx="138.5" cy="118.5" r="2.5" transform="rotate(-180 138.5 118.5)" fill="#E01A47" fill-opacity="0.4"/>
<circle cx="113.5" cy="118.5" r="2.5" transform="rotate(-180 113.5 118.5)" fill="#E01A47" fill-opacity="0.4"/>
<circle cx="88.5" cy="118.5" r="2.5" transform="rotate(-180 88.5 118.5)" fill="#E01A47" fill-opacity="0.4"/>
<circle cx="63.5" cy="118.5" r="2.5" transform="rotate(-180 63.5 118.5)" fill="#E01A47" fill-opacity="0.4"/>
<circle cx="38.5" cy="118.5" r="2.5" transform="rotate(-180 38.5 118.5)" fill="#E01A47" fill-opacity="0.4"/>
<circle cx="13.5" cy="118.5" r="2.5" transform="rotate(-180 13.5 118.5)" fill="#E01A47" fill-opacity="0.4"/>
<circle cx="138.5" cy="86.5" r="2.5" transform="rotate(-180 138.5 86.5)" fill="#E01A47" fill-opacity="0.3"/>
<circle cx="113.5" cy="86.5" r="2.5" transform="rotate(-180 113.5 86.5)" fill="#E01A47" fill-opacity="0.3"/>
<circle cx="88.5" cy="86.5" r="2.5" transform="rotate(-180 88.5 86.5)" fill="#E01A47" fill-opacity="0.3"/>
<circle cx="63.5" cy="86.5" r="2.5" transform="rotate(-180 63.5 86.5)" fill="#E01A47" fill-opacity="0.3"/>
<circle cx="38.5" cy="86.5" r="2.5" transform="rotate(-180 38.5 86.5)" fill="#E01A47" fill-opacity="0.3"/>
<circle cx="13.5" cy="86.5" r="2.5" transform="rotate(-180 13.5 86.5)" fill="#E01A47" fill-opacity="0.3"/>
<circle cx="138.5" cy="54.5" r="2.5" transform="rotate(-180 138.5 54.5)" fill="#E01A47" fill-opacity="0.2"/>
<circle cx="113.5" cy="54.5" r="2.5" transform="rotate(-180 113.5 54.5)" fill="#E01A47" fill-opacity="0.2"/>
<circle cx="88.5" cy="54.5" r="2.5" transform="rotate(-180 88.5 54.5)" fill="#E01A47" fill-opacity="0.2"/>
<circle cx="63.5" cy="54.5" r="2.5" transform="rotate(-180 63.5 54.5)" fill="#E01A47" fill-opacity="0.2"/>
<circle cx="38.5" cy="54.5" r="2.5" transform="rotate(-180 38.5 54.5)" fill="#E01A47" fill-opacity="0.2"/>
<circle cx="13.5" cy="54.5" r="2.5" transform="rotate(-180 13.5 54.5)" fill="#E01A47" fill-opacity="0.2"/>
<circle cx="138.5" cy="22.5" r="2.5" transform="rotate(-180 138.5 22.5)" fill="#E01A47" fill-opacity="0.1"/>
<circle cx="113.5" cy="22.5" r="2.5" transform="rotate(-180 113.5 22.5)" fill="#E01A47" fill-opacity="0.1"/>
<circle cx="88.5" cy="22.5" r="2.5" transform="rotate(-180 88.5 22.5)" fill="#E01A47" fill-opacity="0.1"/>
<circle cx="63.5" cy="22.5" r="2.5" transform="rotate(-180 63.5 22.5)" fill="#E01A47" fill-opacity="0.1"/>
<circle cx="38.5" cy="22.5" r="2.5" transform="rotate(-180 38.5 22.5)" fill="#E01A47" fill-opacity="0.1"/>
<circle cx="13.5" cy="22.5" r="2.5" transform="rotate(-180 13.5 22.5)" fill="#E01A47" fill-opacity="0.1"/>
</svg>
