<svg width="72" height="32" viewBox="0 0 72 32" fill="none" xmlns="http://www.w3.org/2000/svg">
<g clip-path="url(#clip0_225_1452)">
<path d="M9.98828 5.34204C9.98828 4.17133 10.9156 3.22266 12.0603 3.22266C13.2042 3.22266 14.1323 4.17133 14.1323 5.34204C14.1323 6.51275 13.2042 7.46216 12.0603 7.46216C10.9156 7.46216 9.98828 6.51275 9.98828 5.34204Z" fill="#0066B3"/>
<path d="M21.5612 1.29968C21.5612 1.29968 19.9055 1.57439 18.1344 2.04306C16.7991 2.39654 15.871 2.69045 15.524 2.80269C15.5247 2.79974 15.5247 2.79605 15.5247 2.79236C15.0166 2.95334 14.5208 3.1222 14.0352 3.29574C14.5281 3.79396 14.8393 4.47679 14.8665 5.2342C15.2604 5.05771 15.6605 4.88442 16.0696 4.71605C16.0689 4.71531 16.0682 4.71457 16.0682 4.71383C16.525 4.54399 17.7628 4.08712 18.8244 3.71814C20.1546 3.25759 21.9551 2.69291 21.9551 2.69291C27.2048 1.21131 33.0148 0.350755 38.43 0.392109C32.1864 0.0120475 26.5088 0.381771 21.5614 1.29869" fill="#ED1941"/>
<path d="M71.2491 21.4955C65.6305 26.7134 52.8346 29.7583 38.2163 29.7583C18.3591 29.7583 5.52692 23.8004 4.63352 15.9174C4.29801 12.9551 6.58205 10.0879 10.3761 7.63872C9.70629 7.12425 9.26898 6.31293 9.25309 5.39453C3.77598 8.32992 0.677734 12.1972 0.677734 16.1199C0.677734 24.8055 15.8669 32.1665 38.4298 31.847C53.779 31.6299 65.437 27.1506 71.3381 21.6719L71.2493 21.4969" fill="#ED1941"/>
<path d="M11.1445 21.2825V9.12765L13.0959 8.86328V21.2825H11.1445Z" fill="#0066B3"/>
<path d="M19.6615 21.2815V14.3279C19.6615 13.5358 19.5929 13.2104 19.4384 12.9874C19.2997 12.7836 19.0595 12.723 18.801 12.723C18.4222 12.723 17.8542 13.0484 17.3902 13.6377V21.2823H15.4453V13.699C15.4453 12.4589 15.2908 11.7687 15.1875 11.1981L17.0121 10.7109C17.0641 10.8933 17.2359 11.4019 17.2525 11.9304C17.7519 11.3 18.6641 10.7722 19.5592 10.7722C20.2478 10.7722 20.7984 11.0565 21.1419 11.5038C21.538 12.0124 21.6066 12.7033 21.6066 13.395V21.2832H19.6617" fill="#0066B3"/>
<path d="M27.9532 8.4346C27.7294 8.2522 27.3679 8.12961 27.0237 8.12961C26.5416 8.12961 26.2492 8.59681 26.2492 9.39041V10.9761H28.0738L27.7123 12.7241H26.2495V21.2833H24.2533V12.7241H23.582V10.9761H24.2533C24.2533 10.9761 24.2186 10.2645 24.2186 9.61417C24.2186 8.06906 24.7173 7.2565 25.1828 6.84961C25.6475 6.4629 26.1816 6.3418 26.6803 6.3418C27.4028 6.3418 27.9881 6.50426 28.5049 6.89023L27.9542 8.43534" fill="#0066B3"/>
<path d="M29.5751 21.2827V11.0368L31.554 10.7724V21.2827H29.5751ZM30.522 9.53502C29.816 9.53502 29.248 8.94672 29.248 8.21441C29.248 7.48284 29.8334 6.89453 30.5559 6.89453C31.2611 6.89453 31.8298 7.48284 31.8298 8.21367C31.8298 8.94598 31.2445 9.53428 30.522 9.53428" fill="#0066B3"/>
<path d="M38.2606 21.2815V14.3279C38.2606 13.5358 38.192 13.2104 38.0367 12.9874C37.8988 12.7836 37.6579 12.723 37.3994 12.723C37.0206 12.723 36.4526 13.0484 35.9886 13.6377V21.2823H34.0436V13.699C34.0436 12.4589 33.8884 11.7687 33.7852 11.1981L35.6105 10.7109C35.6624 10.8933 35.8343 11.4019 35.8516 11.9304C36.3503 11.3 37.2632 10.7722 38.1583 10.7722C38.8466 10.7722 39.3968 11.0565 39.7407 11.5038C40.1369 12.0124 40.205 12.7033 40.205 13.395V21.2832H38.2608" fill="#0066B3"/>
<path d="M46.4115 13.1291C46.2223 12.6619 45.9121 12.3776 45.4126 12.3776C44.5356 12.3776 44.1561 13.2103 44.1214 15.0395H46.6336C46.6336 14.2267 46.565 13.5357 46.4103 13.1291H46.4115ZM44.1219 16.6865V16.8896C44.1219 17.5618 44.1739 18.1718 44.4148 18.6995C44.7072 19.3307 45.2059 19.6763 45.8083 19.6763C46.5152 19.6763 47.1164 19.3095 47.7188 18.6592L48.4933 20.143C47.6324 21.0991 46.7034 21.5249 45.636 21.5249C43.3474 21.5249 42.0391 19.5131 42.0391 16.096C42.0391 14.3274 42.3322 13.0267 42.9686 12.0514C43.5712 11.136 44.3977 10.6895 45.3958 10.6895C46.3429 10.6895 47.0998 11.0754 47.6331 11.7871C48.3393 12.7224 48.6139 13.9825 48.6139 16.2383V16.6855H44.1224" fill="#0066B3"/>
<path d="M53.3255 12.5189C52.0183 12.5189 52.0183 14.9585 52.0183 16.0157C52.0183 17.1345 51.9834 19.7162 53.3772 19.7162C54.6684 19.7162 54.6685 17.1347 54.6685 16.0556C54.6685 14.9381 54.7204 12.5181 53.3259 12.5181L53.3255 12.5189ZM53.3255 21.5453C50.6407 21.5453 49.9355 18.6183 49.9182 16.0967C49.9018 13.5559 50.7957 10.6895 53.3435 10.6895C55.357 10.6895 56.8028 12.5393 56.8028 16.0561C56.8028 18.6796 55.9592 21.5453 53.3255 21.5453Z" fill="#0066B3"/>
<path d="M62.6593 21.2815V14.3279C62.6593 13.5358 62.5907 13.2104 62.4359 12.9874C62.2983 12.7836 62.0566 12.723 61.7988 12.723C61.42 12.723 60.8518 13.0484 60.388 13.6377V21.2823H58.4431V13.699C58.4431 12.4589 58.2878 11.7687 58.1855 11.1981L60.0099 10.7109C60.0614 10.8933 60.234 11.4019 60.251 11.9304C60.7497 11.3 61.6612 10.7722 62.5572 10.7722C63.2456 10.7722 63.797 11.0565 64.1404 11.5038C64.5366 12.0124 64.6047 12.7033 64.6047 13.395V21.2832H62.6605" fill="#0066B3"/>
</g>
<defs>
<clipPath id="clip0_225_1452">
<rect width="71" height="32" fill="white" transform="translate(0.5)"/>
</clipPath>
</defs>
</svg>
