<svg width="501" height="373" viewBox="0 0 501 373" fill="none" xmlns="http://www.w3.org/2000/svg">
<path d="M500.5 327.455H0.5V327.705H500.5V327.455Z" fill="#E6E6E6"/>
<path d="M381.569 335.055H363.719V335.305H381.569V335.055Z" fill="#E6E6E6"/>
<path d="M435.961 334.936H392.391V335.186H435.961V334.936Z" fill="#E6E6E6"/>
<path d="M310.169 339.314H245.199V339.564H310.169V339.314Z" fill="#E6E6E6"/>
<path d="M239.439 339.314H228.219V339.564H239.439V339.314Z" fill="#E6E6E6"/>
<path d="M137.281 334.686H95.2812V334.936H137.281V334.686Z" fill="#E6E6E6"/>
<path d="M172.648 334.686H142.828V334.936H172.648V334.686Z" fill="#E6E6E6"/>
<path d="M103.001 339.195H67.3906V339.445H103.001V339.195Z" fill="#E6E6E6"/>
<path d="M237.501 282.855H44.4109C42.8983 282.852 41.4485 282.249 40.3798 281.179C39.3112 280.108 38.7109 278.657 38.7109 277.145V5.71469C38.7241 4.21071 39.3301 2.77267 40.3974 1.71291C41.4646 0.653146 42.9069 0.0572639 44.4109 0.0546875H237.501C239.015 0.0546875 240.468 0.656275 241.539 1.72711C242.609 2.79794 243.211 4.2503 243.211 5.76469V277.145C243.211 278.659 242.609 280.111 241.539 281.182C240.468 282.253 239.015 282.855 237.501 282.855ZM44.4109 0.254688C42.9646 0.257337 41.5784 0.833753 40.5566 1.85741C39.5348 2.88108 38.9609 4.26834 38.9609 5.71469V277.145C38.9609 278.591 39.5348 279.978 40.5566 281.002C41.5784 282.026 42.9646 282.602 44.4109 282.605H237.501C238.948 282.602 240.335 282.026 241.359 281.003C242.382 279.979 242.958 278.592 242.961 277.145V5.71469C242.958 4.26742 242.382 2.88018 241.359 1.8568C240.335 0.833428 238.948 0.257332 237.501 0.254688H44.4109Z" fill="#E6E6E6"/>
<path d="M453.81 282.855H260.71C259.196 282.852 257.746 282.25 256.675 281.179C255.605 280.109 255.003 278.658 255 277.145V5.71469C255.016 4.2098 255.624 2.77176 256.693 1.71228C257.762 0.652796 259.205 0.0572358 260.71 0.0546875H453.81C455.312 0.059892 456.752 0.656937 457.817 1.71642C458.882 2.77589 459.487 4.21244 459.5 5.71469V277.145C459.5 278.656 458.901 280.105 457.835 281.175C456.768 282.245 455.321 282.849 453.81 282.855ZM260.71 0.254688C259.263 0.257332 257.875 0.833428 256.852 1.8568C255.829 2.88018 255.253 4.26742 255.25 5.71469V277.145C255.253 278.592 255.829 279.979 256.852 281.003C257.875 282.026 259.263 282.602 260.71 282.605H453.81C455.257 282.602 456.645 282.026 457.668 281.003C458.691 279.979 459.267 278.592 459.27 277.145V5.71469C459.267 4.26742 458.691 2.88018 457.668 1.8568C456.645 0.833428 455.257 0.257332 453.81 0.254688H260.71Z" fill="#E6E6E6"/>
<path d="M119.702 327.455H98.5018C87.4418 308.135 81.2918 256.365 96.8418 200.115C99.5036 190.497 102.729 181.044 106.502 171.805C112.342 250.815 137.702 304.055 119.702 327.455Z" fill="#F0F0F0"/>
<path d="M80.5013 327.454H101.721C111.571 313.174 114.471 274.914 95.3913 233.334C92.0635 226.107 88.2481 219.114 83.9713 212.404C83.0613 270.804 61.0513 310.134 80.5013 327.454Z" fill="#F5F5F5"/>
<path d="M347.571 247.934C326.051 214.564 328.491 312.884 288.941 269.194C240.361 215.524 170.641 197.534 201.111 238.624C231.581 279.714 213.501 293.934 136.501 247.934C80.7205 214.574 183.581 314.584 155.411 310.784C127.241 306.984 84.7005 299.204 121.141 327.454H357.501C357.501 327.454 369.101 281.304 347.571 247.934Z" fill="#F0F0F0"/>
<path d="M392.259 327.705H410.009C419.259 312.985 424.399 273.545 411.399 230.705C409.166 223.352 406.471 216.147 403.329 209.135C398.409 269.315 377.189 309.845 392.259 327.705Z" fill="#EBEBEB"/>
<path d="M425.031 327.705H407.281C399.041 316.825 396.611 287.705 412.581 256.005C415.378 250.466 418.57 245.136 422.131 240.055C422.901 284.545 441.321 314.505 425.031 327.705Z" fill="#EBEBEB"/>
<path d="M379.499 327.705H394.179C400.989 318.705 402.999 294.595 389.789 268.395C387.478 263.814 384.837 259.405 381.889 255.205C381.219 292.055 365.989 316.785 379.499 327.705Z" fill="#EBEBEB"/>
<path d="M139.499 327.455C139.499 327.455 138.499 320.255 127.629 316.545C128.93 318.025 129.911 319.759 130.51 321.636C131.108 323.514 131.313 325.495 131.109 327.455H139.499Z" fill="#FAFAFA"/>
<path d="M191.301 327.455C191.301 327.455 192.301 320.255 203.171 316.545C201.872 318.027 200.893 319.76 200.294 321.637C199.696 323.515 199.49 325.495 199.691 327.455H191.301Z" fill="#E6E6E6"/>
<path d="M330.191 327.456C330.191 327.456 330.881 313.456 338.421 306.266C336.519 313.16 335.703 320.309 336.001 327.456H330.191Z" fill="#E6E6E6"/>
<path d="M434.359 327.455C434.359 327.455 437.869 317.395 454.139 312.215C446.389 319.505 446.079 327.455 446.079 327.455H434.359Z" fill="#E6E6E6"/>
<path d="M67.9705 327.455C67.9705 327.455 65.2105 312.665 85.0605 305.055C79.4005 315.775 85.1905 327.455 85.1905 327.455H67.9705Z" fill="#EBEBEB"/>
<path d="M78.9989 327.454C78.9989 327.454 73.3989 315.374 53.1289 309.154C63.4589 317.904 64.9289 327.454 64.9289 327.454H78.9989Z" fill="#EBEBEB"/>
<path d="M145.699 327.455C145.699 327.455 144.969 315.355 131.699 310.975C137.619 317.175 137.279 327.455 137.279 327.455H145.699Z" fill="#FAFAFA"/>
<path d="M261.7 327.455C261.7 327.455 260.03 315.455 241.84 309.215C244.016 311.69 245.656 314.587 246.66 317.726C247.663 320.865 248.007 324.177 247.67 327.455H261.7Z" fill="#FAFAFA"/>
<path d="M262.219 327.455C262.219 327.455 263.889 315.455 282.079 309.215C279.903 311.69 278.262 314.587 277.259 317.726C276.256 320.865 275.912 324.177 276.249 327.455H262.219Z" fill="#FAFAFA"/>
<path d="M272.149 327.455C272.149 327.455 270.929 307.235 248.789 299.895C258.689 310.265 258.119 327.455 258.119 327.455H272.149Z" fill="#FAFAFA"/>
<path d="M397.078 327.454C397.078 327.454 396.228 322.224 407.078 318.514C402.618 323.734 405.438 327.454 405.438 327.454H397.078Z" fill="#FAFAFA"/>
<path d="M396.768 327.455C396.768 327.455 395.768 320.255 384.898 316.545C386.199 318.025 387.18 319.759 387.779 321.636C388.378 323.514 388.582 325.495 388.378 327.455H396.768Z" fill="#FAFAFA"/>
<path d="M390.84 327.455C390.84 327.455 391.56 315.355 404.84 310.975C398.93 317.175 399.26 327.455 399.26 327.455H390.84Z" fill="#FAFAFA"/>
<path d="M435.92 49.0555C433.31 44.4955 428.05 40.9655 424.16 41.1855C423.544 41.1857 422.938 41.3351 422.393 41.6207C421.848 41.9063 421.38 42.3197 421.03 42.8255C413.93 37.1455 405.76 33.6555 399.03 34.0355C396.061 34.0646 393.218 35.2356 391.09 37.3055C383.47 28.7355 373.75 22.6555 366.7 22.6555C362.7 22.6555 360.21 24.6555 359.32 27.9055C351.5 22.1455 343.46 18.6055 336.98 18.6055C326.65 18.6055 323.29 27.6055 327.52 40.2155C325.83 42.5955 317.68 45.9155 318.01 49.8955H436.38C436.23 49.6155 436.09 49.3355 435.92 49.0555Z" fill="#F5F5F5"/>
<path d="M320.621 96.1248C319.771 96.1438 318.943 96.404 318.235 96.8749C317.527 97.3458 316.967 98.0081 316.621 98.7848C306.951 89.5248 296.041 83.8448 287.261 84.4748C285.274 84.5397 283.328 85.0539 281.568 85.9787C279.808 86.9036 278.281 88.2151 277.101 89.8148C266.591 75.8648 253.491 65.9748 244.261 65.9748C239.011 65.9748 235.891 69.1748 234.961 74.5148C224.351 65.1348 213.611 59.3848 205.131 59.3848C194.621 59.3848 189.981 68.2248 191.431 81.8348C186.361 77.8348 181.431 75.5448 177.331 75.5448C171.721 75.5448 169.091 80.0148 169.541 87.0248C169.052 87.0262 168.564 87.063 168.081 87.1348C159.511 88.3048 156.231 97.3648 160.351 107.725H335.891C332.041 100.885 325.421 95.7848 320.621 96.1248Z" fill="#F5F5F5"/>
<path d="M150.111 52.5452C149.687 52.5454 149.273 52.6683 148.918 52.8991C148.563 53.1298 148.283 53.4584 148.111 53.8452C143.401 49.3352 138.111 46.5652 133.801 46.8452C132.824 46.871 131.865 47.1194 130.999 47.5717C130.132 48.0241 129.381 48.6683 128.801 49.4552C123.671 42.6552 117.281 37.8352 112.801 37.8352C110.241 37.8352 108.711 39.3952 108.261 41.9952C103.091 37.4152 97.8508 34.6152 93.7208 34.6152C88.5908 34.6152 86.3308 38.9252 87.0308 45.6152C84.5608 43.6852 82.1408 42.5452 80.1608 42.5452C77.4308 42.5452 76.1608 44.7252 76.3708 48.1452C76.131 48.13 75.8905 48.13 75.6508 48.1452C71.4808 48.7152 69.8708 53.1452 71.8808 58.1452H157.471C155.681 54.8752 152.501 52.3852 150.111 52.5452Z" fill="#F5F5F5"/>
<path d="M250.499 372.613C357.582 372.613 444.389 367.544 444.389 361.293C444.389 355.041 357.582 349.973 250.499 349.973C143.417 349.973 56.6094 355.041 56.6094 361.293C56.6094 367.544 143.417 372.613 250.499 372.613Z" fill="#F5F5F5"/>
<path d="M177.419 109.465H167.879V361.295H177.419V109.465Z" fill="#E0E0E0"/>
<g style="mix-blend-mode:multiply">
<path d="M177.419 109.465H167.879V132.305H177.419V109.465Z" fill="#E0E0E0"/>
</g>
<path d="M202.04 23.125H143.27C137.134 23.125 132.16 28.0991 132.16 34.235V114.925C132.16 121.061 137.134 126.035 143.27 126.035H202.04C208.176 126.035 213.15 121.061 213.15 114.925V34.235C213.15 28.0991 208.176 23.125 202.04 23.125Z" fill="#299EE0"/>
<path opacity="0.7" d="M202.04 23.125H143.27C137.134 23.125 132.16 28.0991 132.16 34.235V114.925C132.16 121.061 137.134 126.035 143.27 126.035H202.04C208.176 126.035 213.15 121.061 213.15 114.925V34.235C213.15 28.0991 208.176 23.125 202.04 23.125Z" fill="white"/>
<path d="M208.988 114.905V34.2354C208.988 30.3915 205.872 27.2754 202.028 27.2754L143.268 27.2754C139.424 27.2754 136.308 30.3915 136.308 34.2354V114.905C136.308 118.749 139.424 121.865 143.268 121.865H202.028C205.872 121.865 208.988 118.749 208.988 114.905Z" fill="#299EE0"/>
<path d="M151.5 77.3952H159.64C160.77 77.3176 161.886 77.6754 162.76 78.3952C163.111 78.7085 163.391 79.0942 163.579 79.5257C163.767 79.9573 163.86 80.4245 163.85 80.8952C163.866 81.6809 163.588 82.4441 163.07 83.0352C162.656 83.4737 162.136 83.7975 161.56 83.9752C162.422 84.1324 163.206 84.5723 163.79 85.2252C164.278 85.8635 164.53 86.652 164.5 87.4552C164.515 88.1558 164.338 88.8472 163.99 89.4552C163.66 90.0323 163.179 90.5092 162.6 90.8352C162.083 91.0896 161.524 91.2456 160.95 91.2952C159.95 91.4152 159.33 91.4852 159.01 91.4852H151.5V77.3952ZM155.89 82.9052H157.78C158.276 82.9548 158.775 82.8312 159.19 82.5552C159.327 82.4289 159.434 82.2735 159.503 82.1005C159.572 81.9275 159.602 81.7412 159.59 81.5552C159.607 81.3688 159.579 81.1811 159.51 81.0074C159.44 80.8336 159.331 80.6787 159.19 80.5552C158.785 80.2814 158.297 80.1576 157.81 80.2052H155.9L155.89 82.9052ZM155.89 88.4352H158.1C158.66 88.4852 159.22 88.3442 159.69 88.0352C159.841 87.9016 159.96 87.7365 160.039 87.5515C160.119 87.3666 160.157 87.1664 160.15 86.9652C160.158 86.774 160.12 86.5837 160.04 86.4099C159.96 86.236 159.84 86.0836 159.69 85.9652C159.215 85.6602 158.651 85.5262 158.09 85.5852H155.89V88.4352Z" fill="#299EE0"/>
<path d="M175.429 77.3945H179.769V85.7645C179.774 86.5676 179.642 87.3657 179.379 88.1245C179.124 88.8521 178.707 89.5121 178.159 90.0545C177.672 90.5675 177.078 90.9669 176.419 91.2245C175.454 91.5525 174.439 91.7115 173.419 91.6945C172.671 91.6891 171.923 91.6423 171.179 91.5545C170.483 91.4834 169.806 91.2869 169.179 90.9745C168.607 90.6752 168.1 90.2637 167.689 89.7645C167.269 89.2961 166.952 88.744 166.759 88.1445C166.511 87.3748 166.376 86.5731 166.359 85.7645V77.3945H170.689V85.9645C170.671 86.292 170.718 86.6199 170.828 86.9289C170.938 87.238 171.109 87.522 171.329 87.7645C171.823 88.1806 172.449 88.4087 173.094 88.4087C173.74 88.4087 174.365 88.1806 174.859 87.7645C175.083 87.5218 175.255 87.2362 175.365 86.9251C175.475 86.614 175.521 86.2838 175.499 85.9545L175.429 77.3945Z" fill="#299EE0"/>
<path d="M181.891 86.8052L186.021 86.5452C186.064 87.0952 186.254 87.6235 186.571 88.0752C186.799 88.3616 187.092 88.5891 187.426 88.7387C187.76 88.8884 188.125 88.9558 188.491 88.9352C189.005 88.9663 189.513 88.81 189.921 88.4952C190.074 88.3776 190.198 88.2262 190.284 88.0528C190.37 87.8794 190.414 87.6886 190.414 87.4952C190.414 87.3018 190.37 87.1111 190.284 86.9377C190.198 86.7643 190.074 86.6129 189.921 86.4952C189.248 86.0657 188.491 85.7861 187.701 85.6752C186.225 85.4387 184.827 84.8561 183.621 83.9752C183.224 83.6433 182.908 83.2265 182.695 82.7556C182.482 82.2847 182.378 81.7719 182.391 81.2552C182.394 80.5248 182.613 79.8116 183.021 79.2052C183.486 78.5249 184.144 77.9992 184.911 77.6952C186.015 77.281 187.192 77.094 188.371 77.1452C189.811 77.0467 191.247 77.396 192.481 78.1452C192.974 78.5241 193.38 79.0054 193.67 79.5561C193.96 80.1068 194.128 80.7137 194.161 81.3352L190.071 81.5752C190.018 81.046 189.773 80.5546 189.381 80.1952C188.968 79.883 188.458 79.7271 187.941 79.7552C187.533 79.7238 187.128 79.841 186.801 80.0852C186.681 80.1773 186.584 80.2954 186.516 80.4305C186.449 80.5656 186.413 80.7142 186.411 80.8652C186.416 80.9827 186.447 81.0976 186.503 81.2014C186.558 81.3052 186.636 81.3953 186.731 81.4652C187.172 81.7467 187.671 81.9245 188.191 81.9852C189.595 82.2371 190.964 82.6533 192.271 83.2252C193.002 83.566 193.623 84.1068 194.061 84.7852C194.438 85.4124 194.632 86.1331 194.621 86.8652C194.628 87.7537 194.371 88.6242 193.881 89.3652C193.365 90.1351 192.635 90.7367 191.781 91.0952C190.706 91.5207 189.556 91.7215 188.401 91.6852C186.014 91.6852 184.347 91.2252 183.401 90.3052C182.492 89.3588 181.955 88.1158 181.891 86.8052Z" fill="#299EE0"/>
<path d="M144.281 104.806L148.421 104.556C148.462 105.105 148.648 105.633 148.961 106.086C149.19 106.371 149.484 106.597 149.818 106.747C150.151 106.896 150.516 106.965 150.881 106.946C151.398 106.976 151.91 106.82 152.321 106.506C152.473 106.386 152.596 106.234 152.682 106.061C152.769 105.888 152.816 105.699 152.821 105.506C152.821 105.314 152.777 105.124 152.694 104.951C152.611 104.778 152.491 104.626 152.341 104.506C151.666 104.075 150.905 103.795 150.111 103.686C148.639 103.445 147.244 102.859 146.041 101.976C145.645 101.646 145.329 101.231 145.116 100.761C144.903 100.292 144.799 99.7809 144.811 99.2657C144.814 98.535 145.033 97.8216 145.441 97.2157C145.907 96.5354 146.565 96.0096 147.331 95.7057C148.435 95.2875 149.612 95.0971 150.791 95.1457C152.231 95.0524 153.665 95.4013 154.901 96.1457C155.394 96.5259 155.798 97.0076 156.088 97.558C156.378 98.1083 156.546 98.7146 156.581 99.3357L152.481 99.5757C152.432 99.0478 152.19 98.5566 151.801 98.1957C151.385 97.8819 150.871 97.726 150.351 97.7557C149.946 97.7291 149.544 97.842 149.211 98.0757C149.092 98.1698 148.996 98.2899 148.93 98.4268C148.864 98.5637 148.83 98.7138 148.831 98.8657C148.835 98.9825 148.864 99.0971 148.918 99.201C148.972 99.3048 149.048 99.3953 149.141 99.4657C149.584 99.7435 150.082 99.921 150.601 99.9857C152.008 100.239 153.38 100.656 154.691 101.226C155.421 101.569 156.041 102.109 156.481 102.786C156.855 103.415 157.048 104.134 157.041 104.866C157.044 105.755 156.783 106.625 156.291 107.366C155.779 108.135 155.053 108.736 154.201 109.096C153.123 109.521 151.97 109.722 150.811 109.686C148.421 109.686 146.811 109.226 145.811 108.306C144.896 107.361 144.353 106.119 144.281 104.806Z" fill="#299EE0"/>
<path d="M158.238 95.3945H171.498V98.8745H167.068V109.465H162.718V98.8745H158.288L158.238 95.3945Z" fill="#299EE0"/>
<path d="M172.201 102.445C172.103 101.463 172.224 100.471 172.556 99.5406C172.888 98.6107 173.423 97.7663 174.122 97.0685C174.821 96.3708 175.666 95.8371 176.596 95.5062C177.526 95.1753 178.519 95.0554 179.501 95.1552C180.484 95.0919 181.469 95.2266 182.398 95.5512C183.327 95.8759 184.182 96.3839 184.911 97.0452C185.57 97.75 186.078 98.5817 186.405 99.4895C186.732 100.397 186.87 101.362 186.811 102.325C186.856 103.706 186.572 105.077 185.981 106.325C185.445 107.366 184.609 108.223 183.581 108.785C182.374 109.406 181.028 109.708 179.671 109.665C178.318 109.708 176.972 109.449 175.731 108.905C174.666 108.381 173.786 107.544 173.211 106.505C172.516 105.267 172.167 103.865 172.201 102.445ZM176.541 102.445C176.447 103.526 176.726 104.606 177.331 105.505C177.611 105.797 177.947 106.029 178.319 106.188C178.691 106.347 179.092 106.428 179.496 106.428C179.901 106.428 180.301 106.347 180.673 106.188C181.045 106.029 181.381 105.797 181.661 105.505C182.27 104.529 182.537 103.379 182.421 102.235C182.511 101.204 182.227 100.174 181.621 99.3352C181.35 99.0313 181.015 98.7919 180.639 98.6344C180.264 98.477 179.858 98.4055 179.451 98.4252C179.052 98.4098 178.654 98.4855 178.289 98.6466C177.923 98.8078 177.599 99.0501 177.341 99.3552C176.707 100.258 176.409 101.355 176.501 102.455L176.541 102.445Z" fill="#299EE0"/>
<path d="M189.09 95.3956H196.31C197.592 95.2962 198.862 95.7017 199.85 96.5256C200.256 96.9469 200.57 97.4481 200.771 97.9974C200.972 98.5466 201.057 99.1318 201.02 99.7157C201.056 100.33 200.96 100.945 200.74 101.519C200.519 102.093 200.178 102.614 199.74 103.046C198.638 103.931 197.239 104.36 195.83 104.246H193.5V109.466H189.14L189.09 95.3956ZM193.45 101.396H194.5C195.123 101.459 195.749 101.303 196.27 100.956C196.43 100.819 196.558 100.649 196.645 100.457C196.731 100.265 196.774 100.056 196.77 99.8456C196.776 99.6375 196.74 99.4302 196.664 99.2361C196.589 99.0421 196.475 98.8651 196.33 98.7157C195.856 98.355 195.262 98.1903 194.67 98.2556H193.5L193.45 101.396Z" fill="#299EE0"/>
<path d="M197.842 40.3558H155.002C154.704 40.3561 154.415 40.4541 154.178 40.6348C153.942 40.8154 153.771 41.0687 153.692 41.3558L151.502 48.3858C151.309 49.0071 150.951 49.5647 150.467 49.9995C149.983 50.4343 149.39 50.7301 148.752 50.8558L147.402 51.1258C147.03 51.1999 146.695 51.4009 146.454 51.6945C146.213 51.9881 146.082 52.3561 146.082 52.7358V59.7958C146.082 59.9796 146.119 60.1614 146.191 60.3305C146.263 60.4995 146.369 60.6522 146.501 60.7793C146.634 60.9064 146.791 61.0053 146.963 61.07C147.135 61.1347 147.318 61.1639 147.502 61.1558H154.942C154.942 59.5459 155.582 58.002 156.72 56.8637C157.858 55.7253 159.402 55.0858 161.012 55.0858C162.622 55.0858 164.166 55.7253 165.304 56.8637C166.443 58.002 167.082 59.5459 167.082 61.1558H185.302C185.366 59.5873 186.034 58.1041 187.166 57.0168C188.298 55.9295 189.807 55.3223 191.377 55.3223C192.947 55.3223 194.456 55.9295 195.588 57.0168C196.721 58.1041 197.388 59.5873 197.452 61.1558H197.872C198.051 61.1571 198.229 61.1229 198.396 61.0552C198.562 60.9874 198.713 60.8874 198.84 60.761C198.968 60.6346 199.069 60.4842 199.138 60.3186C199.207 60.1529 199.242 59.9752 199.242 59.7958V41.7158C199.241 41.5342 199.203 41.3546 199.132 41.1876C199.061 41.0205 198.957 40.8693 198.827 40.7428C198.696 40.6162 198.542 40.5169 198.373 40.4504C198.204 40.384 198.024 40.3518 197.842 40.3558ZM168.662 48.7558C168.662 49.0856 168.532 49.402 168.299 49.6362C168.067 49.8703 167.752 50.0032 167.422 50.0058H162.742C162.413 50.0006 162.099 49.8669 161.867 49.6333C161.636 49.3997 161.505 49.0848 161.502 48.7558V44.0558C161.505 43.726 161.638 43.4106 161.872 43.1784C162.106 42.9461 162.422 42.8158 162.752 42.8158H167.432C167.758 42.821 168.07 42.9536 168.3 43.1853C168.529 43.417 168.659 43.7294 168.662 44.0558V48.7558ZM177.422 48.7558C177.422 49.0873 177.29 49.4053 177.056 49.6397C176.821 49.8741 176.504 50.0058 176.172 50.0058H171.502C171.171 50.0058 170.853 49.8741 170.618 49.6397C170.384 49.4053 170.252 49.0873 170.252 48.7558V44.0558C170.26 43.7295 170.395 43.4192 170.629 43.1912C170.862 42.9633 171.176 42.8357 171.502 42.8358H176.172C176.498 42.8357 176.812 42.9633 177.045 43.1912C177.279 43.4192 177.414 43.7295 177.422 44.0558V48.7558ZM186.182 48.7558C186.182 49.0873 186.05 49.4053 185.816 49.6397C185.581 49.8741 185.264 50.0058 184.932 50.0058H180.262C179.931 50.0058 179.613 49.8741 179.378 49.6397C179.144 49.4053 179.012 49.0873 179.012 48.7558V44.0558C179.015 43.726 179.148 43.4106 179.382 43.1784C179.616 42.9461 179.932 42.8158 180.262 42.8158H184.932C185.262 42.8158 185.578 42.9461 185.812 43.1784C186.047 43.4106 186.179 43.726 186.182 44.0558V48.7558ZM194.942 48.7558C194.942 49.0873 194.81 49.4053 194.576 49.6397C194.341 49.8741 194.024 50.0058 193.692 50.0058H189.012C188.681 50.0032 188.365 49.8706 188.131 49.6368C187.897 49.4029 187.765 49.0865 187.762 48.7558V44.0558C187.765 43.726 187.898 43.4106 188.132 43.1784C188.366 42.9461 188.682 42.8158 189.012 42.8158H193.692C194.022 42.8158 194.338 42.9461 194.572 43.1784C194.807 43.4106 194.939 43.726 194.942 44.0558V48.7558Z" fill="#299EE0"/>
<path d="M160.971 57.4649C160.239 57.4668 159.525 57.6858 158.917 58.094C158.31 58.5022 157.837 59.0813 157.559 59.7582C157.281 60.435 157.21 61.1791 157.354 61.8965C157.499 62.6138 157.853 63.2721 158.372 63.7882C158.891 64.3043 159.551 64.6549 160.269 64.7957C160.987 64.9365 161.731 64.8612 162.406 64.5794C163.082 64.2975 163.658 63.8217 164.063 63.2121C164.468 62.6026 164.683 61.8866 164.681 61.1549C164.68 60.669 164.583 60.1881 164.396 59.7397C164.209 59.2913 163.935 58.8841 163.59 58.5415C163.246 58.1988 162.837 57.9274 162.388 57.7427C161.939 57.5579 161.457 57.4635 160.971 57.4649Z" fill="#299EE0"/>
<path d="M191.348 57.4648C190.616 57.4648 189.9 57.6821 189.292 58.0891C188.683 58.4961 188.209 59.0746 187.929 59.7512C187.649 60.4279 187.577 61.1724 187.72 61.8904C187.864 62.6084 188.217 63.2676 188.736 63.7847C189.254 64.3017 189.914 64.6533 190.633 64.795C191.351 64.9366 192.095 64.8619 192.771 64.5803C193.447 64.2987 194.024 63.8229 194.43 63.2132C194.835 62.6034 195.05 61.8871 195.048 61.1548C195.043 60.1761 194.651 59.2391 193.958 58.5479C193.265 57.8568 192.327 57.4675 191.348 57.4648Z" fill="#299EE0"/>
<path d="M208.988 114.905V34.2354C208.988 30.3915 205.872 27.2754 202.028 27.2754L143.268 27.2754C139.424 27.2754 136.308 30.3915 136.308 34.2354V114.905C136.308 118.749 139.424 121.865 143.268 121.865H202.028C205.872 121.865 208.988 118.749 208.988 114.905Z" fill="#299EE0"/>
<path d="M151.5 77.3952H159.64C160.77 77.3176 161.886 77.6754 162.76 78.3952C163.111 78.7085 163.391 79.0942 163.579 79.5257C163.767 79.9573 163.86 80.4245 163.85 80.8952C163.866 81.6809 163.588 82.4441 163.07 83.0352C162.656 83.4737 162.136 83.7975 161.56 83.9752C162.422 84.1324 163.206 84.5723 163.79 85.2252C164.278 85.8635 164.53 86.652 164.5 87.4552C164.515 88.1558 164.338 88.8472 163.99 89.4552C163.66 90.0323 163.179 90.5092 162.6 90.8352C162.083 91.0896 161.524 91.2456 160.95 91.2952C159.95 91.4152 159.33 91.4852 159.01 91.4852H151.5V77.3952ZM155.89 82.9052H157.78C158.276 82.9548 158.775 82.8312 159.19 82.5552C159.327 82.4289 159.434 82.2735 159.503 82.1005C159.572 81.9275 159.602 81.7412 159.59 81.5552C159.607 81.3688 159.579 81.1811 159.51 81.0074C159.44 80.8336 159.331 80.6787 159.19 80.5552C158.785 80.2814 158.297 80.1576 157.81 80.2052H155.9L155.89 82.9052ZM155.89 88.4352H158.1C158.66 88.4852 159.22 88.3442 159.69 88.0352C159.841 87.9016 159.96 87.7365 160.039 87.5515C160.119 87.3666 160.157 87.1664 160.15 86.9652C160.158 86.774 160.12 86.5837 160.04 86.4099C159.96 86.236 159.84 86.0836 159.69 85.9652C159.215 85.6602 158.651 85.5262 158.09 85.5852H155.89V88.4352Z" fill="white"/>
<path d="M175.429 77.3945H179.769V85.7645C179.774 86.5676 179.642 87.3657 179.379 88.1245C179.124 88.8521 178.707 89.5121 178.159 90.0545C177.672 90.5675 177.078 90.9669 176.419 91.2245C175.454 91.5525 174.439 91.7115 173.419 91.6945C172.671 91.6891 171.923 91.6423 171.179 91.5545C170.483 91.4834 169.806 91.2869 169.179 90.9745C168.607 90.6752 168.1 90.2637 167.689 89.7645C167.269 89.2961 166.952 88.744 166.759 88.1445C166.511 87.3748 166.376 86.5731 166.359 85.7645V77.3945H170.689V85.9645C170.671 86.292 170.718 86.6199 170.828 86.9289C170.938 87.238 171.109 87.522 171.329 87.7645C171.823 88.1806 172.449 88.4087 173.094 88.4087C173.74 88.4087 174.365 88.1806 174.859 87.7645C175.083 87.5218 175.255 87.2362 175.365 86.9251C175.475 86.614 175.521 86.2838 175.499 85.9545L175.429 77.3945Z" fill="white"/>
<path d="M181.891 86.8052L186.021 86.5452C186.064 87.0952 186.254 87.6235 186.571 88.0752C186.799 88.3616 187.092 88.5891 187.426 88.7387C187.76 88.8884 188.125 88.9558 188.491 88.9352C189.005 88.9663 189.513 88.81 189.921 88.4952C190.074 88.3776 190.198 88.2262 190.284 88.0528C190.37 87.8794 190.414 87.6886 190.414 87.4952C190.414 87.3018 190.37 87.1111 190.284 86.9377C190.198 86.7643 190.074 86.6129 189.921 86.4952C189.248 86.0657 188.491 85.7861 187.701 85.6752C186.225 85.4387 184.827 84.8561 183.621 83.9752C183.224 83.6433 182.908 83.2265 182.695 82.7556C182.482 82.2847 182.378 81.7719 182.391 81.2552C182.394 80.5248 182.613 79.8116 183.021 79.2052C183.486 78.5249 184.144 77.9992 184.911 77.6952C186.015 77.281 187.192 77.094 188.371 77.1452C189.811 77.0467 191.247 77.396 192.481 78.1452C192.974 78.5241 193.38 79.0054 193.67 79.5561C193.96 80.1068 194.128 80.7137 194.161 81.3352L190.071 81.5752C190.018 81.046 189.773 80.5546 189.381 80.1952C188.968 79.883 188.458 79.7271 187.941 79.7552C187.533 79.7238 187.128 79.841 186.801 80.0852C186.681 80.1773 186.584 80.2954 186.516 80.4305C186.449 80.5656 186.413 80.7142 186.411 80.8652C186.416 80.9827 186.447 81.0976 186.503 81.2014C186.558 81.3052 186.636 81.3953 186.731 81.4652C187.172 81.7467 187.671 81.9245 188.191 81.9852C189.595 82.2371 190.964 82.6533 192.271 83.2252C193.002 83.566 193.623 84.1068 194.061 84.7852C194.438 85.4124 194.632 86.1331 194.621 86.8652C194.628 87.7537 194.371 88.6242 193.881 89.3652C193.365 90.1351 192.635 90.7367 191.781 91.0952C190.706 91.5207 189.556 91.7215 188.401 91.6852C186.014 91.6852 184.347 91.2252 183.401 90.3052C182.492 89.3588 181.955 88.1158 181.891 86.8052Z" fill="white"/>
<path d="M144.281 104.806L148.421 104.556C148.462 105.105 148.648 105.633 148.961 106.086C149.19 106.371 149.484 106.597 149.818 106.747C150.151 106.896 150.516 106.965 150.881 106.946C151.398 106.976 151.91 106.82 152.321 106.506C152.473 106.386 152.596 106.234 152.682 106.061C152.769 105.888 152.816 105.699 152.821 105.506C152.821 105.314 152.777 105.124 152.694 104.951C152.611 104.778 152.491 104.626 152.341 104.506C151.666 104.075 150.905 103.795 150.111 103.686C148.639 103.445 147.244 102.859 146.041 101.976C145.645 101.646 145.329 101.231 145.116 100.761C144.903 100.292 144.799 99.7809 144.811 99.2657C144.814 98.535 145.033 97.8216 145.441 97.2157C145.907 96.5354 146.565 96.0096 147.331 95.7057C148.435 95.2875 149.612 95.0971 150.791 95.1457C152.231 95.0524 153.665 95.4013 154.901 96.1457C155.394 96.5259 155.798 97.0076 156.088 97.558C156.378 98.1083 156.546 98.7146 156.581 99.3357L152.481 99.5757C152.432 99.0478 152.19 98.5566 151.801 98.1957C151.385 97.8819 150.871 97.726 150.351 97.7557C149.946 97.7291 149.544 97.842 149.211 98.0757C149.092 98.1698 148.996 98.2899 148.93 98.4268C148.864 98.5637 148.83 98.7138 148.831 98.8657C148.835 98.9825 148.864 99.0971 148.918 99.201C148.972 99.3048 149.048 99.3953 149.141 99.4657C149.584 99.7435 150.082 99.921 150.601 99.9857C152.008 100.239 153.38 100.656 154.691 101.226C155.421 101.569 156.041 102.109 156.481 102.786C156.855 103.415 157.048 104.134 157.041 104.866C157.044 105.755 156.783 106.625 156.291 107.366C155.779 108.135 155.053 108.736 154.201 109.096C153.123 109.521 151.97 109.722 150.811 109.686C148.421 109.686 146.811 109.226 145.811 108.306C144.896 107.361 144.353 106.119 144.281 104.806Z" fill="white"/>
<path d="M158.238 95.3945H171.498V98.8745H167.068V109.465H162.718V98.8745H158.288L158.238 95.3945Z" fill="white"/>
<path d="M172.201 102.445C172.103 101.463 172.224 100.471 172.556 99.5406C172.888 98.6107 173.423 97.7663 174.122 97.0685C174.821 96.3708 175.666 95.8371 176.596 95.5062C177.526 95.1753 178.519 95.0554 179.501 95.1552C180.484 95.0919 181.469 95.2266 182.398 95.5512C183.327 95.8759 184.182 96.3839 184.911 97.0452C185.57 97.75 186.078 98.5817 186.405 99.4895C186.732 100.397 186.87 101.362 186.811 102.325C186.856 103.706 186.572 105.077 185.981 106.325C185.445 107.366 184.609 108.223 183.581 108.785C182.374 109.406 181.028 109.708 179.671 109.665C178.318 109.708 176.972 109.449 175.731 108.905C174.666 108.381 173.786 107.544 173.211 106.505C172.516 105.267 172.167 103.865 172.201 102.445ZM176.541 102.445C176.447 103.526 176.726 104.606 177.331 105.505C177.611 105.797 177.947 106.029 178.319 106.188C178.691 106.347 179.092 106.428 179.496 106.428C179.901 106.428 180.301 106.347 180.673 106.188C181.045 106.029 181.381 105.797 181.661 105.505C182.27 104.529 182.537 103.379 182.421 102.235C182.511 101.204 182.227 100.174 181.621 99.3352C181.35 99.0313 181.015 98.7919 180.639 98.6344C180.264 98.477 179.858 98.4055 179.451 98.4252C179.052 98.4098 178.654 98.4855 178.289 98.6466C177.923 98.8078 177.599 99.0501 177.341 99.3552C176.707 100.258 176.409 101.355 176.501 102.455L176.541 102.445Z" fill="white"/>
<path d="M189.09 95.3956H196.31C197.592 95.2962 198.862 95.7017 199.85 96.5256C200.256 96.9469 200.57 97.4481 200.771 97.9974C200.972 98.5466 201.057 99.1318 201.02 99.7157C201.056 100.33 200.96 100.945 200.74 101.519C200.519 102.093 200.178 102.614 199.74 103.046C198.638 103.931 197.239 104.36 195.83 104.246H193.5V109.466H189.14L189.09 95.3956ZM193.45 101.396H194.5C195.123 101.459 195.749 101.303 196.27 100.956C196.43 100.819 196.558 100.649 196.645 100.457C196.731 100.265 196.774 100.056 196.77 99.8456C196.776 99.6375 196.74 99.4302 196.664 99.2361C196.589 99.0421 196.475 98.8651 196.33 98.7157C195.856 98.355 195.262 98.1903 194.67 98.2556H193.5L193.45 101.396Z" fill="white"/>
<path d="M197.842 40.3558H155.002C154.704 40.3561 154.415 40.4541 154.178 40.6348C153.942 40.8154 153.771 41.0687 153.692 41.3558L151.502 48.3858C151.309 49.0071 150.951 49.5647 150.467 49.9995C149.983 50.4343 149.39 50.7301 148.752 50.8558L147.402 51.1258C147.03 51.1999 146.695 51.4009 146.454 51.6945C146.213 51.9881 146.082 52.3561 146.082 52.7358V59.7958C146.082 59.9796 146.119 60.1614 146.191 60.3305C146.263 60.4995 146.369 60.6522 146.501 60.7793C146.634 60.9064 146.791 61.0053 146.963 61.07C147.135 61.1347 147.318 61.1639 147.502 61.1558H154.942C154.942 59.5459 155.582 58.002 156.72 56.8637C157.858 55.7253 159.402 55.0858 161.012 55.0858C162.622 55.0858 164.166 55.7253 165.304 56.8637C166.443 58.002 167.082 59.5459 167.082 61.1558H185.302C185.366 59.5873 186.034 58.1041 187.166 57.0168C188.298 55.9295 189.807 55.3223 191.377 55.3223C192.947 55.3223 194.456 55.9295 195.588 57.0168C196.721 58.1041 197.388 59.5873 197.452 61.1558H197.872C198.051 61.1571 198.229 61.1229 198.396 61.0552C198.562 60.9874 198.713 60.8874 198.84 60.761C198.968 60.6346 199.069 60.4842 199.138 60.3186C199.207 60.1529 199.242 59.9752 199.242 59.7958V41.7158C199.241 41.5342 199.203 41.3546 199.132 41.1876C199.061 41.0205 198.957 40.8693 198.827 40.7428C198.696 40.6162 198.542 40.5169 198.373 40.4504C198.204 40.384 198.024 40.3518 197.842 40.3558ZM168.662 48.7558C168.662 49.0856 168.532 49.402 168.299 49.6362C168.067 49.8703 167.752 50.0032 167.422 50.0058H162.742C162.413 50.0006 162.099 49.8669 161.867 49.6333C161.636 49.3997 161.505 49.0848 161.502 48.7558V44.0558C161.505 43.726 161.638 43.4106 161.872 43.1784C162.106 42.9461 162.422 42.8158 162.752 42.8158H167.432C167.758 42.821 168.07 42.9536 168.3 43.1853C168.529 43.417 168.659 43.7294 168.662 44.0558V48.7558ZM177.422 48.7558C177.422 49.0873 177.29 49.4053 177.056 49.6397C176.821 49.8741 176.504 50.0058 176.172 50.0058H171.502C171.171 50.0058 170.853 49.8741 170.618 49.6397C170.384 49.4053 170.252 49.0873 170.252 48.7558V44.0558C170.26 43.7295 170.395 43.4192 170.629 43.1912C170.862 42.9633 171.176 42.8357 171.502 42.8358H176.172C176.498 42.8357 176.812 42.9633 177.045 43.1912C177.279 43.4192 177.414 43.7295 177.422 44.0558V48.7558ZM186.182 48.7558C186.182 49.0873 186.05 49.4053 185.816 49.6397C185.581 49.8741 185.264 50.0058 184.932 50.0058H180.262C179.931 50.0058 179.613 49.8741 179.378 49.6397C179.144 49.4053 179.012 49.0873 179.012 48.7558V44.0558C179.015 43.726 179.148 43.4106 179.382 43.1784C179.616 42.9461 179.932 42.8158 180.262 42.8158H184.932C185.262 42.8158 185.578 42.9461 185.812 43.1784C186.047 43.4106 186.179 43.726 186.182 44.0558V48.7558ZM194.942 48.7558C194.942 49.0873 194.81 49.4053 194.576 49.6397C194.341 49.8741 194.024 50.0058 193.692 50.0058H189.012C188.681 50.0032 188.365 49.8706 188.131 49.6368C187.897 49.4029 187.765 49.0865 187.762 48.7558V44.0558C187.765 43.726 187.898 43.4106 188.132 43.1784C188.366 42.9461 188.682 42.8158 189.012 42.8158H193.692C194.022 42.8158 194.338 42.9461 194.572 43.1784C194.807 43.4106 194.939 43.726 194.942 44.0558V48.7558Z" fill="white"/>
<path d="M160.971 57.4649C160.239 57.4668 159.525 57.6858 158.917 58.094C158.31 58.5022 157.837 59.0813 157.559 59.7582C157.281 60.435 157.21 61.1791 157.354 61.8965C157.499 62.6138 157.853 63.2721 158.372 63.7882C158.891 64.3043 159.551 64.6549 160.269 64.7957C160.987 64.9365 161.731 64.8612 162.406 64.5794C163.082 64.2975 163.658 63.8217 164.063 63.2121C164.468 62.6026 164.683 61.8866 164.681 61.1549C164.68 60.669 164.583 60.1881 164.396 59.7397C164.209 59.2913 163.935 58.8841 163.59 58.5415C163.246 58.1988 162.837 57.9274 162.388 57.7427C161.939 57.5579 161.457 57.4635 160.971 57.4649Z" fill="white"/>
<path d="M191.348 57.4648C190.616 57.4648 189.9 57.6821 189.292 58.0891C188.683 58.4961 188.209 59.0746 187.929 59.7512C187.649 60.4279 187.577 61.1724 187.72 61.8904C187.864 62.6084 188.217 63.2676 188.736 63.7847C189.254 64.3017 189.914 64.6533 190.633 64.795C191.351 64.9366 192.095 64.8619 192.771 64.5803C193.447 64.2987 194.024 63.8229 194.43 63.2132C194.835 62.6034 195.05 61.8871 195.048 61.1548C195.043 60.1761 194.651 59.2391 193.958 58.5479C193.265 57.8568 192.327 57.4675 191.348 57.4648Z" fill="white"/>
<path d="M346.011 298.266L345.191 304.086L340.741 361.296H335.461L339.901 304.086L340.721 298.266H346.011Z" fill="#E0E0E0"/>
<path d="M372.703 298.266L373.523 304.086L377.963 361.296H383.243L378.803 304.086L377.983 298.266H372.703Z" fill="#E0E0E0"/>
<path d="M119.603 298.266L118.772 304.086L114.333 361.296H109.062L113.493 304.086L114.323 298.266H119.603Z" fill="#E0E0E0"/>
<path d="M146.281 298.266L147.101 304.086L151.561 361.296H156.841L152.401 304.086L151.571 298.266H146.281Z" fill="#E0E0E0"/>
<path d="M153.453 240.145L145.213 298.265L144.393 304.085H139.113L139.933 298.265L148.173 240.145H153.453Z" fill="#E0E0E0"/>
<path d="M379.852 240.145L371.612 298.265L370.792 304.085H365.512L366.332 298.265L374.572 240.145H379.852Z" fill="#E0E0E0"/>
<path d="M380.71 288.635H138.73L143.23 272.455H385.2L380.71 288.635Z" fill="#299EE0"/>
<path d="M375.191 288.635H133.211L137.701 272.455H379.681L375.191 288.635Z" fill="#299EE0"/>
<path opacity="0.1" d="M380.71 288.635H138.73L143.23 272.455H385.2L380.71 288.635Z" fill="black"/>
<path d="M387.453 248.235H145.473L149.973 232.055H391.943L387.453 248.235Z" fill="#299EE0"/>
<path opacity="0.1" d="M387.453 248.235H145.473L149.973 232.055H391.943L387.453 248.235Z" fill="black"/>
<path d="M381.933 248.235H139.953L144.443 232.055H386.423L381.933 248.235Z" fill="white"/>
<path d="M381.933 248.235H139.953L144.443 232.055H386.423L381.933 248.235Z" fill="#299EE0"/>
<path opacity="0.3" d="M381.933 248.235H139.953L144.443 232.055H386.423L381.933 248.235Z" fill="white"/>
<path d="M384.082 268.424H142.102L146.602 252.234H388.572L384.082 268.424Z" fill="#299EE0"/>
<path d="M378.562 268.424H136.582L141.072 252.234H383.052L378.562 268.424Z" fill="#299EE0"/>
<path opacity="0.1" d="M384.082 268.424H142.102L146.602 252.234H388.572L384.082 268.424Z" fill="black"/>
<path d="M378.562 268.424H136.582L141.072 252.234H383.052L378.562 268.424Z" fill="#299EE0"/>
<path opacity="0.3" d="M378.562 268.424H136.582L141.072 252.234H383.052L378.562 268.424Z" fill="white"/>
<path d="M375.191 288.635H133.211L137.701 272.455H379.681L375.191 288.635Z" fill="#299EE0"/>
<path opacity="0.3" d="M375.191 288.635H133.211L137.701 272.455H379.681L375.191 288.635Z" fill="white"/>
<path d="M352.113 298.266H111.203V304.086H352.113V298.266Z" fill="#299EE0"/>
<path d="M352.113 298.266H111.203V304.086H352.113V298.266Z" fill="#299EE0"/>
<path opacity="0.3" d="M352.113 298.266H111.203V304.086H352.113V298.266Z" fill="white"/>
<path d="M385.212 298.266H352.102V304.086H385.212V298.266Z" fill="#299EE0"/>
<path opacity="0.1" d="M385.212 298.266H352.102V304.086H385.212V298.266Z" fill="black"/>
<path d="M200.021 360.694C199.528 360.732 199.036 360.598 198.631 360.314C198.506 360.199 198.411 360.055 198.357 359.894C198.303 359.733 198.29 359.561 198.321 359.394C198.327 359.29 198.361 359.19 198.419 359.103C198.477 359.017 198.557 358.948 198.651 358.904C199.481 358.504 201.731 359.904 201.981 360.094C202.013 360.109 202.039 360.134 202.058 360.164C202.076 360.194 202.086 360.228 202.086 360.264C202.086 360.299 202.076 360.333 202.058 360.363C202.039 360.393 202.013 360.418 201.981 360.434C201.34 360.593 200.682 360.681 200.021 360.694ZM199.021 359.194C198.952 359.181 198.881 359.181 198.811 359.194C198.774 359.213 198.742 359.241 198.72 359.276C198.697 359.311 198.684 359.352 198.681 359.394C198.659 359.503 198.664 359.616 198.697 359.723C198.731 359.83 198.79 359.926 198.871 360.004C199.668 360.365 200.572 360.412 201.401 360.134C200.679 359.663 199.87 359.344 199.021 359.194Z" fill="#299EE0"/>
<path d="M201.88 360.435C201.851 360.444 201.819 360.444 201.79 360.435C201.08 360.035 199.72 358.435 199.88 357.645C199.904 357.511 199.974 357.389 200.078 357.301C200.182 357.214 200.314 357.165 200.45 357.165C200.583 357.146 200.718 357.158 200.846 357.197C200.974 357.237 201.091 357.305 201.19 357.395C202 358.095 202.06 360.185 202.07 360.275C202.07 360.307 202.061 360.339 202.046 360.367C202.03 360.395 202.007 360.418 201.98 360.435C201.948 360.446 201.913 360.446 201.88 360.435ZM200.57 357.505H200.5C200.27 357.505 200.25 357.635 200.24 357.685C200.15 358.155 200.98 359.325 201.68 359.875C201.665 359.075 201.411 358.299 200.95 357.645C200.846 357.552 200.71 357.502 200.57 357.505Z" fill="#299EE0"/>
<path d="M202.902 363.695H210.132L211.042 346.965H203.812L202.902 363.695Z" fill="#E4897B"/>
<path d="M202.501 359.414H210.621C210.762 359.414 210.899 359.465 211.007 359.556C211.115 359.648 211.187 359.775 211.211 359.914L212.301 366.334C212.324 366.494 212.312 366.658 212.266 366.813C212.22 366.969 212.142 367.113 212.035 367.235C211.929 367.357 211.798 367.455 211.65 367.522C211.503 367.59 211.343 367.624 211.181 367.624C208.341 367.574 206.981 367.404 203.401 367.404C201.211 367.404 193.951 367.634 190.921 367.634C187.891 367.634 187.641 364.634 188.921 364.364C194.551 363.144 199.451 361.464 201.321 359.864C201.649 359.58 202.067 359.42 202.501 359.414Z" fill="#263238"/>
<path d="M272.38 220.655C269.85 226.025 267.21 231.295 264.47 236.545C261.73 241.795 258.91 246.995 255.91 252.165L254.77 254.105L254.48 254.595L254.04 255.285C253.73 255.775 253.44 256.105 253.13 256.525C252.031 257.851 250.824 259.081 249.52 260.205C247.177 262.238 244.72 264.134 242.16 265.885C237.2 269.287 232.03 272.369 226.68 275.115L223.68 270.565C228.14 266.835 232.68 263.065 236.93 259.255C239.05 257.355 241.14 255.405 242.93 253.455C243.771 252.564 244.553 251.619 245.27 250.625C245.38 250.425 245.56 250.195 245.61 250.055L245.99 249.315L246.99 247.375C252.15 236.975 257.19 226.315 262.47 215.865L272.38 220.655Z" fill="#E4897B"/>
<path d="M275.399 215.414C277.509 221.884 264.179 240.924 264.179 240.924L250.129 233.054C252.615 227.112 255.708 221.441 259.359 216.134C264.869 208.534 273.099 208.324 275.399 215.414Z" fill="#299EE0"/>
<path d="M223.953 270.414L217.223 274.304L222.093 281.464C222.093 281.464 227.303 278.834 227.853 273.464L223.953 270.414Z" fill="#E4897B"/>
<path d="M212.93 283.105L218.44 282.555L222.09 281.465L217.22 274.305L212.93 283.105Z" fill="#E4897B"/>
<path d="M203.812 346.965H211.042L210.562 355.595H203.332L203.812 346.965Z" fill="#CE6F64"/>
<path d="M269.483 363.695H262.253L256.973 346.965H264.203L269.483 363.695Z" fill="#E4897B"/>
<path d="M260.901 359.414H269.021C269.163 359.412 269.301 359.462 269.41 359.554C269.518 359.646 269.59 359.774 269.611 359.914L270.711 366.334C270.733 366.495 270.719 366.659 270.672 366.814C270.625 366.97 270.546 367.113 270.439 367.235C270.332 367.357 270.2 367.455 270.052 367.522C269.904 367.589 269.744 367.624 269.581 367.624C266.751 367.574 265.381 367.404 261.811 367.404C259.611 367.404 252.361 367.634 249.321 367.634C246.281 367.634 246.051 364.634 247.321 364.364C252.951 363.144 257.851 361.464 259.711 359.864C260.043 359.579 260.464 359.42 260.901 359.414Z" fill="#263238"/>
<path d="M264.203 346.965H256.973L259.703 355.595H266.933L264.203 346.965Z" fill="#CE6F64"/>
<path d="M258.5 360.694C258.003 360.732 257.509 360.598 257.1 360.314C256.974 360.199 256.88 360.055 256.826 359.894C256.772 359.733 256.759 359.561 256.79 359.394C256.797 359.29 256.831 359.19 256.889 359.104C256.947 359.018 257.027 358.949 257.12 358.904C257.96 358.504 260.21 359.904 260.46 360.094C260.489 360.115 260.512 360.144 260.526 360.177C260.54 360.211 260.545 360.248 260.54 360.284C260.533 360.319 260.517 360.352 260.492 360.379C260.467 360.406 260.435 360.425 260.4 360.434C259.778 360.59 259.141 360.677 258.5 360.694ZM257.5 359.194C257.427 359.181 257.353 359.181 257.28 359.194C257.243 359.212 257.212 359.241 257.191 359.276C257.17 359.312 257.159 359.352 257.16 359.394C257.137 359.503 257.143 359.616 257.176 359.723C257.209 359.83 257.269 359.926 257.35 360.004C258.143 360.365 259.044 360.411 259.87 360.134C259.151 359.664 258.345 359.344 257.5 359.194Z" fill="#299EE0"/>
<path d="M260.32 360.436C260.29 360.445 260.259 360.445 260.23 360.436C259.52 360.036 258.15 358.436 258.31 357.646C258.337 357.512 258.41 357.391 258.515 357.304C258.621 357.216 258.753 357.168 258.89 357.166C259.022 357.149 259.157 357.16 259.285 357.2C259.413 357.24 259.53 357.307 259.63 357.396C260.43 358.096 260.5 360.186 260.5 360.276C260.499 360.308 260.491 360.339 260.475 360.367C260.46 360.395 260.437 360.419 260.41 360.436C260.38 360.445 260.349 360.445 260.32 360.436ZM259.01 357.506H258.93C258.71 357.506 258.68 357.636 258.67 357.686C258.58 358.156 259.42 359.326 260.11 359.876C260.102 359.077 259.851 358.299 259.39 357.646C259.285 357.554 259.149 357.504 259.01 357.506Z" fill="#299EE0"/>
<path d="M305.602 212.824C306.952 213.094 308.092 213.374 309.302 213.704C310.512 214.034 311.672 214.374 312.852 214.704C315.199 215.431 317.532 216.261 319.852 217.194C322.142 218.114 324.402 219.144 326.632 220.304C327.752 220.864 328.852 221.484 329.942 222.114C330.482 222.434 331.022 222.784 331.562 223.114L332.372 223.624C332.422 223.624 332.852 223.934 333.132 224.144C333.44 224.388 333.733 224.648 334.012 224.924C334.998 225.976 335.688 227.27 336.012 228.674C336.256 229.702 336.337 230.761 336.252 231.814C336.122 233.378 335.785 234.918 335.252 236.394C334.364 238.832 333.239 241.177 331.892 243.394C329.394 247.597 326.501 251.551 323.252 255.204L318.812 252.084C320.872 248.084 322.902 243.844 324.562 239.764C325.373 237.821 326.022 235.814 326.502 233.764C326.691 233.002 326.775 232.219 326.752 231.434C326.752 231.174 326.662 231.024 326.652 231.094C326.694 231.365 326.824 231.615 327.022 231.804C327.082 231.881 327.153 231.948 327.232 232.004C327.232 232.054 327.462 232.164 327.232 232.054L326.512 231.694C326.032 231.454 325.512 231.194 325.072 230.974C324.072 230.524 323.072 230.054 322.072 229.634C320.072 228.764 318.002 227.984 315.912 227.244C313.822 226.504 311.712 225.824 309.572 225.184C308.502 224.864 307.432 224.544 306.362 224.254L303.242 223.434L305.602 212.824Z" fill="#E4897B"/>
<path d="M318.06 252.355L313.68 258.175L322.68 258.795C322.68 258.795 325.68 252.925 322.51 251.605L318.06 252.355Z" fill="#E4897B"/>
<path d="M314.19 266.326L321.67 266.476L322.71 258.796L313.68 258.176L314.19 266.326Z" fill="#E4897B"/>
<path d="M263.421 272.944C263.421 272.944 213.421 271.224 206.741 291.114C199.411 312.884 200.941 353.224 200.941 353.224H213.501C213.501 353.224 218.331 324.434 221.641 309.834C225.081 294.674 273.901 301.564 280.101 296.024C285.051 291.604 287.551 284.124 288.211 272.944H263.421Z" fill="#299EE0"/>
<path opacity="0.7" d="M263.421 272.944C263.421 272.944 213.421 271.224 206.741 291.114C199.411 312.884 200.941 353.224 200.941 353.224H213.501C213.501 353.224 218.331 324.434 221.641 309.834C225.081 294.674 273.901 301.564 280.101 296.024C285.051 291.604 287.551 284.124 288.211 272.944H263.421Z" fill="black"/>
<path d="M277.131 272.945C277.131 272.945 228.061 275.465 231.501 296.155C235.261 318.815 256.421 353.225 256.421 353.225H269.051C269.051 353.225 260.431 320.145 256.441 305.725C253.691 295.725 287.771 301.565 293.971 296.025C298.921 291.605 301.421 284.125 302.081 272.945H277.131Z" fill="#299EE0"/>
<path opacity="0.6" d="M277.131 272.945C277.131 272.945 228.061 275.465 231.501 296.155C235.261 318.815 256.421 353.225 256.421 353.225H269.051C269.051 353.225 260.431 320.145 256.441 305.725C253.691 295.725 287.771 301.565 293.971 296.025C298.921 291.605 301.421 284.125 302.081 272.945H277.131Z" fill="black"/>
<path d="M214.311 353.525H200.101L199.711 349.025L215.231 349.425L214.311 353.525Z" fill="#299EE0"/>
<path d="M269.802 353.525H255.592L252.832 349.025H269.712L269.802 353.525Z" fill="#299EE0"/>
<path d="M275.58 216.235C272.81 214.895 269.58 216.015 266.11 221.355C262.64 226.695 259.61 235.625 259.25 238.175L264.18 240.925C264.18 240.925 276.5 223.345 275.58 216.235Z" fill="#299EE0"/>
<path opacity="0.1" d="M275.58 216.235C272.81 214.895 269.58 216.015 266.11 221.355C262.64 226.695 259.61 235.625 259.25 238.175L264.18 240.925C264.18 240.925 276.5 223.345 275.58 216.235Z" fill="black"/>
<path d="M307.591 210.055C307.351 210.985 307.121 211.915 306.911 212.845C306.911 212.845 306.911 212.895 306.911 212.925C305.397 219.519 304.281 226.197 303.571 232.925C301.461 252.245 302.511 268.615 302.101 272.925H263.421C257.421 232.275 267.081 210.455 267.081 210.455C267.081 210.455 270.311 209.575 274.411 208.935C275.651 208.735 276.971 208.565 278.301 208.445C283.773 208.125 289.259 208.125 294.731 208.445C295.911 208.505 297.101 208.595 298.251 208.705C303.251 209.215 307.591 210.055 307.591 210.055Z" fill="#299EE0"/>
<path d="M298.25 208.725L297.16 210.225C296.95 210.515 291.93 217.275 281.36 219.175L280.42 219.345L279.55 218.935C276.22 217.365 274.32 215.255 273.91 212.675C273.715 211.412 273.889 210.121 274.41 208.955C275.65 208.755 276.97 208.585 278.3 208.465C283.772 208.145 289.258 208.145 294.73 208.465C295.91 208.525 297.1 208.615 298.25 208.725Z" fill="white"/>
<path d="M276.959 241.714C276.481 241.71 276.009 241.61 275.571 241.419C275.133 241.228 274.738 240.951 274.409 240.604C272.979 239.174 272.289 236.604 272.569 233.604C273.019 228.904 275.709 225.004 278.709 224.734C279.237 224.688 279.769 224.762 280.264 224.951C280.76 225.14 281.206 225.438 281.569 225.824C282.999 227.264 283.689 229.824 283.409 232.824C282.959 237.534 280.269 241.434 277.279 241.704L276.959 241.714ZM279.029 225.714H278.799C276.349 225.934 273.959 229.594 273.569 233.714C273.319 236.314 273.919 238.714 275.119 239.894C275.38 240.177 275.702 240.396 276.061 240.535C276.42 240.674 276.806 240.728 277.189 240.694C279.629 240.474 282.029 236.824 282.419 232.694C282.659 230.094 282.069 227.694 280.859 226.514C280.623 226.267 280.339 226.07 280.024 225.936C279.71 225.802 279.371 225.733 279.029 225.734V225.714Z" fill="white"/>
<path d="M294.061 189.965C292.751 195.245 291.221 204.965 294.731 208.465C294.731 208.465 290.331 214.465 280.831 216.225C273.671 212.845 278.301 208.465 278.301 208.465C284.301 207.055 284.301 202.685 283.531 198.575L294.061 189.965Z" fill="#E4897B"/>
<path d="M289.77 193.475L283.5 198.565C283.707 199.525 283.828 200.502 283.86 201.485C286.13 201.165 289.35 198.685 289.71 196.325C289.9 195.386 289.921 194.421 289.77 193.475Z" fill="#CE6F64"/>
<path d="M278.101 173.696C274.461 175.206 272.011 185.176 276.441 187.466C280.871 189.756 284.981 170.846 278.101 173.696Z" fill="#263238"/>
<path d="M295.1 182.054C294.29 189.214 294.18 193.424 290.37 197.104C289.175 198.315 287.67 199.175 286.02 199.588C284.369 200.001 282.637 199.952 281.012 199.446C279.388 198.94 277.934 197.996 276.81 196.719C275.686 195.442 274.935 193.879 274.64 192.204C273.44 185.764 274.96 175.144 282.12 172.294C283.633 171.627 285.297 171.376 286.94 171.565C288.583 171.755 290.146 172.379 291.468 173.373C292.79 174.367 293.823 175.695 294.461 177.221C295.1 178.746 295.32 180.415 295.1 182.054Z" fill="#E4897B"/>
<path d="M289.499 166.335C293.419 163.865 299.409 166.335 298.199 169.705C296.259 175.155 301.249 169.925 301.199 176.375C301.199 180.585 296.449 190.565 293.449 190.305C290.449 190.045 289.299 184.735 291.119 178.835C292.479 174.395 288.729 176.145 283.279 176.685C272.219 177.765 264.609 163.275 277.339 164.055C289.649 164.805 288.339 158.055 288.339 158.055C288.339 158.055 292.769 165.295 285.779 165.325C278.789 165.355 281.369 171.445 289.499 166.335Z" fill="#263238"/>
<path d="M297.931 189.895C296.893 191.416 295.318 192.487 293.521 192.895C291.161 193.405 290.241 191.285 291.111 189.155C291.891 187.235 294.061 184.655 296.331 185.095C298.601 185.535 299.191 188.055 297.931 189.895Z" fill="#E4897B"/>
<path d="M296.242 171.835C297.215 171.706 298.143 171.349 298.951 170.793C299.759 170.236 300.424 169.497 300.892 168.635C300.892 168.635 301.082 174.305 296.242 171.835Z" fill="#263238"/>
<path d="M284.14 184.054C284.14 184.634 283.77 185.104 283.39 185.104C283.01 185.104 282.73 184.634 282.76 184.054C282.79 183.474 283.12 182.994 283.5 182.994C283.88 182.994 284.17 183.424 284.14 184.054Z" fill="#263238"/>
<path d="M277.55 184.054C277.55 184.634 277.18 185.104 276.8 185.104C276.42 185.104 276.14 184.634 276.17 184.054C276.2 183.474 276.53 182.994 276.91 182.994C277.29 182.994 277.58 183.424 277.55 184.054Z" fill="#263238"/>
<path d="M279.632 184.295C278.839 186.088 277.814 187.769 276.582 189.295C276.976 189.579 277.427 189.773 277.904 189.863C278.381 189.953 278.872 189.937 279.342 189.815L279.632 184.295Z" fill="#DE5753"/>
<path d="M280.971 191.415C280.926 191.415 280.883 191.397 280.851 191.366C280.819 191.334 280.801 191.29 280.801 191.245C280.8 191.223 280.803 191.2 280.811 191.179C280.819 191.157 280.832 191.138 280.848 191.122C280.864 191.106 280.883 191.093 280.904 191.085C280.926 191.077 280.948 191.074 280.971 191.075C281.709 191.083 282.439 190.924 283.107 190.61C283.776 190.297 284.365 189.837 284.831 189.265C284.857 189.228 284.897 189.203 284.941 189.193C284.986 189.184 285.032 189.192 285.071 189.215C285.103 189.247 285.121 189.29 285.121 189.335C285.121 189.38 285.103 189.424 285.071 189.455C284.584 190.075 283.96 190.573 283.25 190.913C282.539 191.253 281.759 191.425 280.971 191.415Z" fill="#263238"/>
<path d="M286.251 181.874C286.197 181.874 286.143 181.862 286.095 181.837C286.046 181.813 286.004 181.778 285.971 181.734C285.735 181.388 285.419 181.104 285.05 180.905C284.681 180.707 284.27 180.6 283.851 180.594C283.806 180.602 283.76 180.599 283.716 180.587C283.672 180.575 283.631 180.553 283.596 180.524C283.56 180.494 283.532 180.458 283.512 180.416C283.493 180.375 283.482 180.33 283.481 180.284C283.476 180.193 283.506 180.103 283.566 180.034C283.626 179.965 283.71 179.922 283.801 179.914C284.338 179.906 284.869 180.032 285.345 180.28C285.822 180.528 286.229 180.89 286.531 181.334C286.583 181.409 286.603 181.501 286.588 181.591C286.573 181.68 286.524 181.76 286.451 181.814C286.392 181.854 286.322 181.875 286.251 181.874Z" fill="#263238"/>
<path d="M274.802 181.744C274.749 181.754 274.694 181.754 274.642 181.744C274.561 181.7 274.502 181.626 274.475 181.538C274.449 181.45 274.459 181.355 274.502 181.274C274.748 180.781 275.106 180.351 275.547 180.02C275.987 179.688 276.499 179.464 277.042 179.364C277.13 179.353 277.22 179.377 277.291 179.431C277.362 179.485 277.409 179.565 277.422 179.654C277.433 179.744 277.409 179.835 277.355 179.908C277.301 179.98 277.221 180.029 277.132 180.044C276.701 180.133 276.296 180.32 275.949 180.59C275.602 180.861 275.323 181.208 275.132 181.604C275.094 181.655 275.044 181.695 274.986 181.72C274.928 181.744 274.864 181.753 274.802 181.744Z" fill="#263238"/>
<path d="M306.912 212.826V212.886C306.912 212.886 306.912 212.936 306.912 212.966C305.397 219.559 304.282 226.238 303.572 232.966C299.362 227.036 298.122 220.836 298.862 216.966C299.672 212.686 304.382 212.566 306.912 212.826Z" fill="#299EE0"/>
<path opacity="0.1" d="M306.912 212.826V212.886C306.912 212.886 306.912 212.936 306.912 212.966C305.397 219.559 304.282 226.238 303.572 232.966C299.362 227.036 298.122 220.836 298.862 216.966C299.672 212.686 304.382 212.566 306.912 212.826Z" fill="black"/>
<path d="M300.502 210.725C305.782 206.345 325.032 216.675 325.032 216.675L313.692 230.885C313.692 230.885 311.692 230.435 303.692 226.835C295.302 223.055 294.832 215.415 300.502 210.725Z" fill="#299EE0"/>
<path d="M195.674 277.727L194.254 298.267H183.924L183.644 294.197L182.784 281.797L182.504 277.727H195.674Z" fill="#299EE0"/>
<path opacity="0.2" d="M195.674 277.727L194.254 298.267H183.924L183.644 294.197L182.784 281.797L182.504 277.727H195.674Z" fill="black"/>
<path d="M196.803 277.057H181.383V278.387H196.803V277.057Z" fill="#E6E6E6"/>
<path d="M195.854 275.727H182.324V277.057H195.854V275.727Z" fill="#F5F5F5"/>
<path d="M188.504 281.797V294.197H183.514L182.664 281.797H188.504Z" fill="#F5F5F5"/>
</svg>
