<svg width="80" height="80" viewBox="0 0 80 80" fill="none" xmlns="http://www.w3.org/2000/svg">
<circle cx="40" cy="40" r="40" fill="#E3335B"/>
<g clip-path="url(#clip0_1430_3420)">
<path d="M44.8638 20H34.8941C32.6914 20.0026 30.5797 20.8815 29.0222 22.4437C27.4647 24.0059 26.5886 26.124 26.5859 28.3333V46.6667H53.1719V28.3333C53.1693 26.124 52.2931 24.0059 50.7356 22.4437C49.1781 20.8815 47.0664 20.0026 44.8638 20V20Z" fill="white"/>
<path d="M26.5859 51.6667C26.5886 53.876 27.4647 55.9941 29.0222 57.5563C30.5797 59.1185 32.6914 59.9974 34.8941 60H44.8638C47.0664 59.9974 49.1781 59.1185 50.7356 57.5563C52.2931 55.9941 53.1693 53.876 53.1719 51.6667V50H26.5859V51.6667ZM39.8789 53.3333C40.2076 53.3333 40.5288 53.4311 40.8021 53.6142C41.0753 53.7974 41.2883 54.0577 41.4141 54.3622C41.5398 54.6667 41.5727 55.0019 41.5086 55.3252C41.4445 55.6485 41.2863 55.9454 41.0539 56.1785C40.8215 56.4116 40.5254 56.5703 40.2031 56.6346C39.8808 56.699 39.5467 56.6659 39.2431 56.5398C38.9394 56.4137 38.6799 56.2 38.4973 55.926C38.3148 55.6519 38.2173 55.3296 38.2173 55C38.2173 54.558 38.3924 54.134 38.704 53.8215C39.0156 53.5089 39.4382 53.3333 39.8789 53.3333V53.3333Z" fill="white"/>
</g>
<defs>
<clipPath id="clip0_1430_3420">
<rect width="39.879" height="40" fill="white" transform="translate(19.9395 20)"/>
</clipPath>
</defs>
</svg>
