<svg width="80" height="80" viewBox="0 0 80 80" fill="none" xmlns="http://www.w3.org/2000/svg">
<circle cx="40" cy="40" r="40" fill="#E3335B"/>
<path d="M36.5595 49.1667C36.5617 47.0441 37.2106 44.9688 38.4257 43.1987C39.6408 41.4286 41.3686 40.0416 43.3943 39.21C45.4201 38.3784 47.6547 38.1389 49.8205 38.5211C51.9863 38.9033 53.9879 39.8905 55.5767 41.36V20H26.1865C24.811 20 23.4917 20.5268 22.5191 21.4645C21.5464 22.4021 21 23.6739 21 25V55C21 56.3261 21.5464 57.5979 22.5191 58.5355C23.4917 59.4732 24.811 60 26.1865 60H47.7969C44.8166 60 41.9583 58.8586 39.8509 56.827C37.7434 54.7953 36.5595 52.0398 36.5595 49.1667ZM29.6442 28.3333H46.9325V31.6667H29.6442V28.3333ZM56.5154 59.9283L51.9219 55.5C50.6896 56.2583 49.2589 56.6629 47.7969 56.6667C46.2582 56.6667 44.7541 56.2268 43.4747 55.4027C42.1953 54.5786 41.1982 53.4072 40.6094 52.0368C40.0205 50.6663 39.8665 49.1583 40.1667 47.7035C40.4668 46.2486 41.2078 44.9123 42.2958 43.8634C43.3838 42.8145 44.77 42.1002 46.2792 41.8108C47.7883 41.5214 49.3525 41.6699 50.7741 42.2376C52.1957 42.8052 53.4107 43.7665 54.2655 44.9999C55.1204 46.2333 55.5767 47.6833 55.5767 49.1667C55.5728 50.5761 55.153 51.9553 54.3665 53.1433L58.96 57.5717L56.5154 59.9283Z" fill="white"/>
</svg>
