<svg width="80" height="80" viewBox="0 0 80 80" fill="none" xmlns="http://www.w3.org/2000/svg">
<circle cx="40" cy="40" r="40" fill="#E3335B"/>
<path d="M35 49.25H20V34.625C20 31.7325 20.8797 28.9049 22.528 26.4998C24.1762 24.0947 26.5189 22.2202 29.2597 21.1133C32.0006 20.0063 35.0166 19.7167 37.9264 20.281C40.8361 20.8453 43.5088 22.2382 45.6066 24.2836C47.7044 26.3289 49.133 28.9348 49.7118 31.7718C50.2906 34.6088 49.9935 37.5494 48.8582 40.2217C47.7229 42.8941 45.8003 45.1782 43.3336 46.7852C40.8668 48.3923 37.9667 49.25 35 49.25ZM53.3333 34.755C53.295 39.4497 51.3652 43.9415 47.9603 47.2613C44.5554 50.5811 39.9484 52.4626 35.1333 52.5C36.3024 54.4743 37.9834 56.1141 40.0078 57.255C42.0321 58.3959 44.3285 58.9977 46.6667 59H60V46C59.9976 43.7203 59.3804 41.4813 58.2103 39.5076C57.0401 37.5339 55.3582 35.8949 53.3333 34.755Z" fill="white"/>
</svg>
