<svg width="80" height="80" viewBox="0 0 80 80" fill="none" xmlns="http://www.w3.org/2000/svg">
<circle cx="40" cy="40" r="40" fill="#E3335B"/>
<path d="M40 20C36.0444 20 32.1776 21.173 28.8886 23.3706C25.5996 25.5682 23.0362 28.6918 21.5224 32.3463C20.0087 36.0009 19.6126 40.0222 20.3843 43.9018C21.156 47.7814 23.0608 51.3451 25.8579 54.1421C28.6549 56.9392 32.2186 58.844 36.0982 59.6157C39.9778 60.3874 43.9992 59.9913 47.6537 58.4776C51.3082 56.9638 54.4318 54.4004 56.6294 51.1114C58.827 47.8224 60 43.9556 60 40C60 34.6957 57.8929 29.6086 54.1421 25.8579C50.3914 22.1071 45.3043 20 40 20V20ZM41.6667 40.7217L33.245 46L31.4767 43.1667L38.3333 38.875V30H41.6667V40.7217Z" fill="white"/>
</svg>
