<svg width="80" height="80" viewBox="0 0 80 80" fill="none" xmlns="http://www.w3.org/2000/svg">
<circle cx="40" cy="40" r="40" fill="#E3335B"/>
<path d="M60 53.0909V27.1818C60 25.8075 59.4732 24.4895 58.5355 23.5177C57.5979 22.5459 56.3261 22 55 22H25C23.6739 22 22.4021 22.5459 21.4645 23.5177C20.5268 24.4895 20 25.8075 20 27.1818V53.0909H38.3333V56.5455H30V60H50V56.5455H41.6667V53.0909H60ZM35.0583 39.2727H25V35.8182H33.275L37.7067 28.9298L42.7067 39.2935L44.9417 35.8182H55V39.2727H46.725L42.2933 46.1611L37.2933 35.7975L35.0583 39.2727Z" fill="white"/>
</svg>
